<?xml version="1.0" standalone="no"?>
<svg xmlns="http://www.w3.org/2000/svg" id="svg" width="95.9vw" style="transform: rotate(0.18deg) translate(0px, 0.16vw); cursor: pointer; background: rgb(255, 255, 255);" viewBox="0 0 2550 3300"><path d="M 0 0 M 2550 3300"/><g id="black-3"><g><path fill="none" fill-opacity="0.65" stroke="#000" stroke-linecap="round" stroke-linejoin="round" stroke-width="1px" style="transform: translate(120px, 250px) scale(4.5) rotate(0deg)" class="" d="M27 30H4m23 0 3-1.9a12.4 12.4 0 0 0 6-10.6v-1a13 13 0 0 0-3.4-8.7l-.3-.3c-.8-1-1.9-1.8-3-2.4C27.7 4.4 26 4 24.4 4H4v26m23 0 3.7 2a11.8 11.8 0 0 1 5.7 7l.1.3c.7 2.1.8 4.3.3 6.5l-.3 1.2c-.3 1.7-1 3.2-2 4.5-1.6 2-3.8 3.3-6.3 3.8l-2.4.4c-.9.2-1.7.3-2.6.3H4V30"/><path fill="none" fill-opacity="0.65" stroke="#000" stroke-linecap="round" stroke-linejoin="round" stroke-width="1px" style="transform: translate(367.5px, 250px) scale(4.5) rotate(0deg)" class="" d="m4 57 6.3-18m35.2 18L39 39m0 0L26.5 4h-4L10.3 39M39 39H10.3"/><path fill="none" fill-opacity="0.65" stroke="#000" stroke-linecap="round" stroke-linejoin="round" stroke-width="1px" style="transform: translate(660px, 250px) scale(4.5) rotate(0deg)" class="" d="M0 4h20.8m20.7 0H20.7m0 0v55"/><path fill="none" fill-opacity="0.65" stroke="#000" stroke-linecap="round" stroke-linejoin="round" stroke-width="1px" style="transform: translate(952.5px, 250px) scale(4.5) rotate(0deg)" class="" d="M4 0v29m0 29V29m0 0h38m0 0V0m0 29v29"/><path fill="none" fill-opacity="0.65" stroke="#000" stroke-linecap="round" stroke-linejoin="round" stroke-width="1px" style="transform: translate(1267.5px, 250px) scale(4.5) rotate(0deg)" class="" d="M4 58.7V4.3c30-3.2 34.1 19.2 17.5 27M4 33.9c7.2.7 13.1-.3 17.5-2.4m0 0 15 27.3"/><path fill="none" fill-opacity="0.65" stroke="#000" stroke-linecap="round" stroke-linejoin="round" stroke-width="1px" style="transform: translate(1515px, 250px) scale(4.5) rotate(0deg)" class="" d="M26.3 4c-28 0-31.4 54 0 53.5 31.4-.6 28-53.5 0-53.5Z"/><path fill="none" fill-opacity="0.65" stroke="#000" stroke-linecap="round" stroke-linejoin="round" stroke-width="1px" style="transform: translate(1852.5px, 250px) scale(4.5) rotate(0deg)" class="" d="M26.3 4c-28 0-31.4 54 0 53.5 31.4-.6 28-53.5 0-53.5Z"/><path fill="none" fill-opacity="0.65" stroke="#000" stroke-linecap="round" stroke-linejoin="round" stroke-width="1px" style="transform: translate(2190px, 250px) scale(4.5) rotate(0deg)" class="" d="M4 57.5V2l25 55.5L52.5 2v55.5"/></g><path fill="none" fill-opacity="0.65" stroke="#000" stroke-linecap="round" stroke-linejoin="round" stroke-width="0.45px" style="transform: translate(1000px, 2840px) scale(10) rotate(270deg)" class="" d="M180.5 30.5L6.5 30.5M40 3.50003L6.5 30.5 40 57.5"/></g></svg>