<?xml version="1.0" standalone="no"?>
<svg xmlns="http://www.w3.org/2000/svg" id="svg" width="95.9vw" style="transform: rotate(0.18deg) translate(0px, 0.16vw); cursor: pointer; background: rgb(255, 255, 255);" viewBox="0 0 3300 2550"><path d="M 0 0 M 3300 2550"/><g id="black-3"><g><path fill="none" fill-opacity="0.65" stroke="#000" stroke-linecap="round" stroke-linejoin="round" stroke-width="1.956521739130435px" style="transform: translate(250px, 450px) scale(2.3) rotate(0deg)" class="" d="M4 55V4h18c1.7 0 3.3.3 4.8 1l2.7 1 2.4 1.3a13 13 0 0 1 5 4.7l.5 1c.4.6.7 1.4 1 2.2l1.6 4.3 1.2 5 .4 2 .3 4v2l-.3 4.4c0 .7-.2 1.5-.4 2.2l-.7 3a13 13 0 0 1-1.6 3.6l-.6 1a13 13 0 0 1-1.8 2.3l-1.2 1.2a13 13 0 0 1-2.9 2.2l-1.1.6a13 13 0 0 1-3.8 1.4l-1.7.3c-.9.2-1.7.3-2.6.3H4Z"/><path fill="none" fill-opacity="0.65" stroke="#000" stroke-linecap="round" stroke-linejoin="round" stroke-width="1.956521739130435px" style="transform: translate(399.5px, 450px) scale(2.3) rotate(0deg)" class="" d="M35 4H4v25.8m31 25.7H4V29.7m0 0h29.5"/><path fill="none" fill-opacity="0.65" stroke="#000" stroke-linecap="round" stroke-linejoin="round" stroke-width="1.956521739130435px" style="transform: translate(537.5px, 450px) scale(2.3) rotate(0deg)" class="" d="M35.5 4H4v25.5m0 29v-29m0 0h29"/><path fill="none" fill-opacity="0.65" stroke="#000" stroke-linecap="round" stroke-linejoin="round" stroke-width="1.956521739130435px" style="transform: translate(664px, 450px) scale(2.3) rotate(0deg)" class="" d="m4 57 6.3-18m35.2 18L39 39m0 0L26.5 4h-4L10.3 39M39 39H10.3"/><path fill="none" fill-opacity="0.65" stroke="#000" stroke-linecap="round" stroke-linejoin="round" stroke-width="1.956521739130435px" style="transform: translate(813.5px, 450px) scale(2.3) rotate(0deg)" class="" d="M49.5 20.5c-7.1-24.8-43.4-20.8-45 5L4 35a23.4 23.4 0 0 0 39.7 18.2l5.8-5.7"/><path fill="none" fill-opacity="0.65" stroke="#000" stroke-linecap="round" stroke-linejoin="round" stroke-width="1.956521739130435px" style="transform: translate(986px, 450px) scale(2.3) rotate(0deg)" class="" d="M4 0v58"/><path fill="none" fill-opacity="0.65" stroke="#000" stroke-linecap="round" stroke-linejoin="round" stroke-width="1.956521739130435px" style="transform: translate(1055px, 445px) scale(2.3) rotate(0deg)" class="" d="M4 67.5V12l39 55.5V12"/><path fill="none" fill-opacity="0.65" stroke="#000" stroke-linecap="round" stroke-linejoin="round" stroke-width="1.956521739130435px" style="transform: translate(1204.5px, 448px) scale(2.3) rotate(0deg)" class="" d="m46 19-2-4.6a13 13 0 0 0-1.4-2.6l-.8-1.2a13 13 0 0 0-5.9-4.5l-1.6-.6a13 13 0 0 0-2.7-.7l-3.1-.5a13 13 0 0 0-4 0l-3.4.5-2.1.5-1.4.5a13 13 0 0 0-6 4.1l-1.2 1.5A13 13 0 0 0 9 13.8l-2 3.7a13 13 0 0 0-.7 2l-1.3 4.1a13 13 0 0 0-.5 2.8L4 30.5v2l.3 4c0 1 .2 2 .5 2.9l1 3.4A13 13 0 0 0 7.5 46L9 48.5a13 13 0 0 0 2.3 2.7l2.2 2a13 13 0 0 0 3.3 2.1l1.6.8c1.4.6 2.9 1 4.3 1l2.8.3h2l3.6-.3a13 13 0 0 0 3.7-.8l1.2-.5a13 13 0 0 0 5.7-4.3l1.4-1.8a13 13 0 0 0 1.5-2.6L46 44a13 13 0 0 0 1.1-5.2V34H28.5"/><path fill="none" fill-opacity="0.65" stroke="#000" stroke-linecap="round" stroke-linejoin="round" stroke-width="1.956521739130435px" style="transform: translate(1365.5px, 450px) scale(2.3) rotate(0deg)" class="" d="M0 0"/><path fill="none" fill-opacity="0.65" stroke="#000" stroke-linecap="round" stroke-linejoin="round" stroke-width="1.956521739130435px" style="transform: translate(1515px, 452px) scale(2.3) rotate(0deg)" class="" d="M4 0v40.5c0 21 38.5 20 38.5 0V0"/><path fill="none" fill-opacity="0.65" stroke="#000" stroke-linecap="round" stroke-linejoin="round" stroke-width="1.956521739130435px" style="transform: translate(1676px, 450px) scale(2.3) rotate(0deg)" class="" d="M37 14.1C31.5.6 4 .6 4 14.1s16 14 16 14c14.8 4 17 5 17 17s-33 14.5-33 0"/><path fill="none" fill-opacity="0.65" stroke="#000" stroke-linecap="round" stroke-linejoin="round" stroke-width="1.956521739130435px" style="transform: translate(1813.9999999999998px, 450px) scale(2.3) rotate(0deg)" class="" d="M0 0"/><path fill="none" fill-opacity="0.65" stroke="#000" stroke-linecap="round" stroke-linejoin="round" stroke-width="1.956521739130435px" style="transform: translate(1963.4999999999998px, 450px) scale(2.3) rotate(0deg)" class="" d="M49.5 20.5c-7.1-24.8-43.4-20.8-45 5L4 35a23.4 23.4 0 0 0 39.7 18.2l5.8-5.7"/><path fill="none" fill-opacity="0.65" stroke="#000" stroke-linecap="round" stroke-linejoin="round" stroke-width="1.956521739130435px" style="transform: translate(2136px, 452px) scale(2.3) rotate(0deg)" class="" d="M4 0v40.5c0 21 38.5 20 38.5 0V0"/><path fill="none" fill-opacity="0.65" stroke="#000" stroke-linecap="round" stroke-linejoin="round" stroke-width="1.956521739130435px" style="transform: translate(2297px, 450px) scale(2.3) rotate(0deg)" class="" d="M4 58.7V4.3c30-3.2 34.1 19.2 17.5 27M4 33.9c7.2.7 13.1-.3 17.5-2.4m0 0 15 27.3"/><path fill="none" fill-opacity="0.65" stroke="#000" stroke-linecap="round" stroke-linejoin="round" stroke-width="1.956521739130435px" style="transform: translate(2423.5px, 450px) scale(2.3) rotate(0deg)" class="" d="M4 58.7V4.3c30-3.2 34.1 19.2 17.5 27M4 33.9c7.2.7 13.1-.3 17.5-2.4m0 0 15 27.3"/><path fill="none" fill-opacity="0.65" stroke="#000" stroke-linecap="round" stroke-linejoin="round" stroke-width="1.956521739130435px" style="transform: translate(2550px, 450px) scale(2.3) rotate(0deg)" class="" d="M35 4H4v25.8m31 25.7H4V29.7m0 0h29.5"/><path fill="none" fill-opacity="0.65" stroke="#000" stroke-linecap="round" stroke-linejoin="round" stroke-width="1.956521739130435px" style="transform: translate(2688px, 445px) scale(2.3) rotate(0deg)" class="" d="M4 67.5V12l39 55.5V12"/><path fill="none" fill-opacity="0.65" stroke="#000" stroke-linecap="round" stroke-linejoin="round" stroke-width="1.956521739130435px" style="transform: translate(2837.5px, 450px) scale(2.3) rotate(0deg)" class="" d="M49.5 20.5c-7.1-24.8-43.4-20.8-45 5L4 35a23.4 23.4 0 0 0 39.7 18.2l5.8-5.7"/><path fill="none" fill-opacity="0.65" stroke="#000" stroke-linecap="round" stroke-linejoin="round" stroke-width="1.956521739130435px" style="transform: translate(3010px, 450px) scale(2.3) rotate(0deg)" class="" d="m3 2 20 31m0 0L43 2M23 33v26.5"/></g><g><path fill="none" fill-opacity="0.65" stroke="#000" stroke-linecap="round" stroke-linejoin="round" stroke-width="1.5px" style="transform: translate(120px, 900px) scale(3) rotate(0deg)" class="" d="M4 0v58"/><path fill="none" fill-opacity="0.65" stroke="#000" stroke-linecap="round" stroke-linejoin="round" stroke-width="1.5px" style="transform: translate(210px, 900px) scale(3) rotate(0deg)" class="" d="M37 14.1C31.5.6 4 .6 4 14.1s16 14 16 14c14.8 4 17 5 17 17s-33 14.5-33 0"/><path fill="none" fill-opacity="0.65" stroke="#000" stroke-linecap="round" stroke-linejoin="round" stroke-width="1.5px" style="transform: translate(390px, 900px) scale(3) rotate(0deg)" class="" d="M0 0"/><path fill="none" fill-opacity="0.65" stroke="#000" stroke-linecap="round" stroke-linejoin="round" stroke-width="1.5px" style="transform: translate(585px, 900px) scale(3) rotate(0deg)" class="" d="m4 57 6.3-18m35.2 18L39 39m0 0L26.5 4h-4L10.3 39M39 39H10.3"/><path fill="none" fill-opacity="0.65" stroke="#000" stroke-linecap="round" stroke-linejoin="round" stroke-width="1.5px" style="transform: translate(780px, 900px) scale(3) rotate(0deg)" class="" d="M0 0"/><path fill="none" fill-opacity="0.65" stroke="#000" stroke-linecap="round" stroke-linejoin="round" stroke-width="1.5px" style="transform: translate(975px, 900px) scale(3) rotate(0deg)" class="" d="M35.5 4H4v25.5m0 29v-29m0 0h29"/><path fill="none" fill-opacity="0.65" stroke="#000" stroke-linecap="round" stroke-linejoin="round" stroke-width="1.5px" style="transform: translate(1140px, 900px) scale(3) rotate(0deg)" class="" d="M35 4H4v25.8m31 25.7H4V29.7m0 0h29.5"/><path fill="none" fill-opacity="0.65" stroke="#000" stroke-linecap="round" stroke-linejoin="round" stroke-width="1.5px" style="transform: translate(1320px, 900px) scale(3) rotate(0deg)" class="" d="M4 55V4h18c1.7 0 3.3.3 4.8 1l2.7 1 2.4 1.3a13 13 0 0 1 5 4.7l.5 1c.4.6.7 1.4 1 2.2l1.6 4.3 1.2 5 .4 2 .3 4v2l-.3 4.4c0 .7-.2 1.5-.4 2.2l-.7 3a13 13 0 0 1-1.6 3.6l-.6 1a13 13 0 0 1-1.8 2.3l-1.2 1.2a13 13 0 0 1-2.9 2.2l-1.1.6a13 13 0 0 1-3.8 1.4l-1.7.3c-.9.2-1.7.3-2.6.3H4Z"/><path fill="none" fill-opacity="0.65" stroke="#000" stroke-linecap="round" stroke-linejoin="round" stroke-width="1.5px" style="transform: translate(1515px, 900px) scale(3) rotate(0deg)" class="" d="M35 4H4v25.8m31 25.7H4V29.7m0 0h29.5"/><path fill="none" fill-opacity="0.65" stroke="#000" stroke-linecap="round" stroke-linejoin="round" stroke-width="1.5px" style="transform: translate(1695px, 900px) scale(3) rotate(0deg)" class="" d="M4 58.7V4.3c30-3.2 34.1 19.2 17.5 27M4 33.9c7.2.7 13.1-.3 17.5-2.4m0 0 15 27.3"/><path fill="none" fill-opacity="0.65" stroke="#000" stroke-linecap="round" stroke-linejoin="round" stroke-width="1.5px" style="transform: translate(1860px, 900px) scale(3) rotate(0deg)" class="" d="m4 57 6.3-18m35.2 18L39 39m0 0L26.5 4h-4L10.3 39M39 39H10.3"/><path fill="none" fill-opacity="0.65" stroke="#000" stroke-linecap="round" stroke-linejoin="round" stroke-width="1.5px" style="transform: translate(2055px, 900px) scale(3) rotate(0deg)" class="" d="M4 0v52.5h28"/><path fill="none" fill-opacity="0.65" stroke="#000" stroke-linecap="round" stroke-linejoin="round" stroke-width="1.5px" style="transform: translate(2220px, 900px) scale(3) rotate(0deg)" class="" d="M0 0"/><path fill="none" fill-opacity="0.65" stroke="#000" stroke-linecap="round" stroke-linejoin="round" stroke-width="1.5px" style="transform: translate(2415px, 900px) scale(3) rotate(0deg)" class="" d="M49.5 20.5c-7.1-24.8-43.4-20.8-45 5L4 35a23.4 23.4 0 0 0 39.7 18.2l5.8-5.7"/><path fill="none" fill-opacity="0.65" stroke="#000" stroke-linecap="round" stroke-linejoin="round" stroke-width="1.5px" style="transform: translate(2640px, 900px) scale(3) rotate(0deg)" class="" d="M4 58.7V4.3c30-3.2 34.1 19.2 17.5 27M4 33.9c7.2.7 13.1-.3 17.5-2.4m0 0 15 27.3"/><path fill="none" fill-opacity="0.65" stroke="#000" stroke-linecap="round" stroke-linejoin="round" stroke-width="1.5px" style="transform: translate(2805px, 900px) scale(3) rotate(0deg)" class="" d="M4 0v58"/><path fill="none" fill-opacity="0.65" stroke="#000" stroke-linecap="round" stroke-linejoin="round" stroke-width="1.5px" style="transform: translate(2895px, 900px) scale(3) rotate(0deg)" class="" d="M4 57.5V2l25 55.5L52.5 2v55.5"/><path fill="none" fill-opacity="0.65" stroke="#000" stroke-linecap="round" stroke-linejoin="round" stroke-width="1.5px" style="transform: translate(3120px, 900px) scale(3) rotate(0deg)" class="" d="M35 4H4v25.8m31 25.7H4V29.7m0 0h29.5"/></g><g><path fill="none" fill-opacity="0.65" stroke="#000" stroke-linecap="round" stroke-linejoin="round" stroke-width="2.25px" style="transform: translate(150px, 1350px) scale(2) rotate(0deg)" class="" d="M4 59V4.6C41.8.5 38.6 37.5 4 34"/><path fill="none" fill-opacity="0.65" stroke="#000" stroke-linecap="round" stroke-linejoin="round" stroke-width="2.25px" style="transform: translate(250px, 1352px) scale(2) rotate(0deg)" class="" d="M4 0v40.5c0 21 38.5 20 38.5 0V0"/><path fill="none" fill-opacity="0.65" stroke="#000" stroke-linecap="round" stroke-linejoin="round" stroke-width="2.25px" style="transform: translate(390px, 1345px) scale(2) rotate(0deg)" class="" d="M4 67.5V12l39 55.5V12"/><path fill="none" fill-opacity="0.65" stroke="#000" stroke-linecap="round" stroke-linejoin="round" stroke-width="2.25px" style="transform: translate(520px, 1350px) scale(2) rotate(0deg)" class="" d="M4 0v58"/><path fill="none" fill-opacity="0.65" stroke="#000" stroke-linecap="round" stroke-linejoin="round" stroke-width="2.25px" style="transform: translate(580px, 1350px) scale(2) rotate(0deg)" class="" d="M37 14.1C31.5.6 4 .6 4 14.1s16 14 16 14c14.8 4 17 5 17 17s-33 14.5-33 0"/><path fill="none" fill-opacity="0.65" stroke="#000" stroke-linecap="round" stroke-linejoin="round" stroke-width="2.25px" style="transform: translate(700px, 1350px) scale(2) rotate(0deg)" class="" d="M4 0v29m0 29V29m0 0h38m0 0V0m0 29v29"/><path fill="none" fill-opacity="0.65" stroke="#000" stroke-linecap="round" stroke-linejoin="round" stroke-width="2.25px" style="transform: translate(840px, 1350px) scale(2) rotate(0deg)" class="" d="m4 57 6.3-18m35.2 18L39 39m0 0L26.5 4h-4L10.3 39M39 39H10.3"/><path fill="none" fill-opacity="0.65" stroke="#000" stroke-linecap="round" stroke-linejoin="round" stroke-width="2.25px" style="transform: translate(970px, 1350px) scale(2) rotate(0deg)" class="" d="M27 30H4m23 0 3-1.9a12.4 12.4 0 0 0 6-10.6v-1a13 13 0 0 0-3.4-8.7l-.3-.3c-.8-1-1.9-1.8-3-2.4C27.7 4.4 26 4 24.4 4H4v26m23 0 3.7 2a11.8 11.8 0 0 1 5.7 7l.1.3c.7 2.1.8 4.3.3 6.5l-.3 1.2c-.3 1.7-1 3.2-2 4.5-1.6 2-3.8 3.3-6.3 3.8l-2.4.4c-.9.2-1.7.3-2.6.3H4V30"/><path fill="none" fill-opacity="0.65" stroke="#000" stroke-linecap="round" stroke-linejoin="round" stroke-width="2.25px" style="transform: translate(1080px, 1350px) scale(2) rotate(0deg)" class="" d="M4 0v52.5h28"/><path fill="none" fill-opacity="0.65" stroke="#000" stroke-linecap="round" stroke-linejoin="round" stroke-width="2.25px" style="transform: translate(1190px, 1350px) scale(2) rotate(0deg)" class="" d="M35 4H4v25.8m31 25.7H4V29.7m0 0h29.5"/><path fill="none" fill-opacity="0.65" stroke="#000" stroke-linecap="round" stroke-linejoin="round" stroke-width="2.25px" style="transform: translate(1310px, 1350px) scale(2) rotate(0deg)" class="" d="M0 0"/><path fill="none" fill-opacity="0.65" stroke="#000" stroke-linecap="round" stroke-linejoin="round" stroke-width="2.25px" style="transform: translate(1440px, 1352px) scale(2) rotate(0deg)" class="" d="M4 0v40.5c0 21 38.5 20 38.5 0V0"/><path fill="none" fill-opacity="0.65" stroke="#000" stroke-linecap="round" stroke-linejoin="round" stroke-width="2.25px" style="transform: translate(1580px, 1350px) scale(2) rotate(0deg)" class="" d="M4 59V4.6C41.8.5 38.6 37.5 4 34"/><path fill="none" fill-opacity="0.65" stroke="#000" stroke-linecap="round" stroke-linejoin="round" stroke-width="2.25px" style="transform: translate(1680px, 1350px) scale(2) rotate(0deg)" class="" d="M0 0"/><path fill="none" fill-opacity="0.65" stroke="#000" stroke-linecap="round" stroke-linejoin="round" stroke-width="2.25px" style="transform: translate(1810px, 1350px) scale(2) rotate(0deg)" class="" d="M0 4h20.8m20.7 0H20.7m0 0v55"/><path fill="none" fill-opacity="0.65" stroke="#000" stroke-linecap="round" stroke-linejoin="round" stroke-width="2.25px" style="transform: translate(1940px, 1350px) scale(2) rotate(0deg)" class="" d="M26.3 4c-28 0-31.4 54 0 53.5 31.4-.6 28-53.5 0-53.5Z"/><path fill="none" fill-opacity="0.65" stroke="#000" stroke-linecap="round" stroke-linejoin="round" stroke-width="2.25px" style="transform: translate(2090px, 1350px) scale(2) rotate(0deg)" class="" d="M0 0"/><path fill="none" fill-opacity="0.65" stroke="#000" stroke-linecap="round" stroke-linejoin="round" stroke-width="2.25px" style="transform: translate(2220px, 1350px) scale(2) rotate(0deg)" class="" d="M35.9 13.7c-9-18-34.2-10.9-31.7 20.1m0 0c.2 22.8 24.5 28.3 31.7 10.4C43 26.3 13.2 16.8 4.2 33.8Z"/><path fill="none" fill-opacity="0.65" stroke="#000" stroke-linecap="round" stroke-linejoin="round" stroke-width="2.25px" style="transform: translate(2340px, 1350px) scale(2) rotate(0deg)" class="" d="M0 0"/><path fill="none" fill-opacity="0.65" stroke="#000" stroke-linecap="round" stroke-linejoin="round" stroke-width="2.25px" style="transform: translate(2470px, 1350px) scale(2) rotate(0deg)" class="" d="M4 57.5V2l25 55.5L52.5 2v55.5"/><path fill="none" fill-opacity="0.65" stroke="#000" stroke-linecap="round" stroke-linejoin="round" stroke-width="2.25px" style="transform: translate(2620px, 1350px) scale(2) rotate(0deg)" class="" d="M26.3 4c-28 0-31.4 54 0 53.5 31.4-.6 28-53.5 0-53.5Z"/><path fill="none" fill-opacity="0.65" stroke="#000" stroke-linecap="round" stroke-linejoin="round" stroke-width="2.25px" style="transform: translate(2770px, 1345px) scale(2) rotate(0deg)" class="" d="M4 67.5V12l39 55.5V12"/><path fill="none" fill-opacity="0.65" stroke="#000" stroke-linecap="round" stroke-linejoin="round" stroke-width="2.25px" style="transform: translate(2900px, 1350px) scale(2) rotate(0deg)" class="" d="M0 4h20.8m20.7 0H20.7m0 0v55"/><path fill="none" fill-opacity="0.65" stroke="#000" stroke-linecap="round" stroke-linejoin="round" stroke-width="2.25px" style="transform: translate(3030px, 1350px) scale(2) rotate(0deg)" class="" d="M4 0v29m0 29V29m0 0h38m0 0V0m0 29v29"/><path fill="none" fill-opacity="0.65" stroke="#000" stroke-linecap="round" stroke-linejoin="round" stroke-width="2.25px" style="transform: translate(3170px, 1350px) scale(2) rotate(0deg)" class="" d="M37 14.1C31.5.6 4 .6 4 14.1s16 14 16 14c14.8 4 17 5 17 17s-33 14.5-33 0"/></g><g><path fill="none" fill-opacity="0.65" stroke="#000" stroke-linecap="round" stroke-linejoin="round" stroke-width="1.6666666666666665px" style="transform: translate(150px, 1800px) scale(2.7) rotate(0deg)" class="" d="M4 0v58"/><path fill="none" fill-opacity="0.65" stroke="#000" stroke-linecap="round" stroke-linejoin="round" stroke-width="1.6666666666666665px" style="transform: translate(231px, 1795px) scale(2.7) rotate(0deg)" class="" d="M4 67.5V12l39 55.5V12"/><path fill="none" fill-opacity="0.65" stroke="#000" stroke-linecap="round" stroke-linejoin="round" stroke-width="1.6666666666666665px" style="transform: translate(406.5px, 1800px) scale(2.7) rotate(0deg)" class="" d="M0 0"/><path fill="none" fill-opacity="0.65" stroke="#000" stroke-linecap="round" stroke-linejoin="round" stroke-width="1.6666666666666665px" style="transform: translate(582px, 1800px) scale(2.7) rotate(0deg)" class="" d="M4 59V4.6C41.8.5 38.6 37.5 4 34"/><path fill="none" fill-opacity="0.65" stroke="#000" stroke-linecap="round" stroke-linejoin="round" stroke-width="1.6666666666666665px" style="transform: translate(717px, 1800px) scale(2.7) rotate(0deg)" class="" d="M4 58.7V4.3c30-3.2 34.1 19.2 17.5 27M4 33.9c7.2.7 13.1-.3 17.5-2.4m0 0 15 27.3"/><path fill="none" fill-opacity="0.65" stroke="#000" stroke-linecap="round" stroke-linejoin="round" stroke-width="1.6666666666666665px" style="transform: translate(865.5px, 1800px) scale(2.7) rotate(0deg)" class="" d="M4 0v58"/><path fill="none" fill-opacity="0.65" stroke="#000" stroke-linecap="round" stroke-linejoin="round" stroke-width="1.6666666666666665px" style="transform: translate(946.5px, 1800px) scale(2.7) rotate(0deg)" class="" d="M37 14.1C31.5.6 4 .6 4 14.1s16 14 16 14c14.8 4 17 5 17 17s-33 14.5-33 0"/><path fill="none" fill-opacity="0.65" stroke="#000" stroke-linecap="round" stroke-linejoin="round" stroke-width="1.6666666666666665px" style="transform: translate(1108.5px, 1800px) scale(2.7) rotate(0deg)" class="" d="M26.3 4c-28 0-31.4 54 0 53.5 31.4-.6 28-53.5 0-53.5Z"/><path fill="none" fill-opacity="0.65" stroke="#000" stroke-linecap="round" stroke-linejoin="round" stroke-width="1.6666666666666665px" style="transform: translate(1311px, 1795px) scale(2.7) rotate(0deg)" class="" d="M4 67.5V12l39 55.5V12"/><path fill="none" fill-opacity="0.65" stroke="#000" stroke-linecap="round" stroke-linejoin="round" stroke-width="1.6666666666666665px" style="transform: translate(1486.5px, 1800px) scale(2.7) rotate(0deg)" class="" d="M0 0"/><path fill="none" fill-opacity="0.65" stroke="#000" stroke-linecap="round" stroke-linejoin="round" stroke-width="1.6666666666666665px" style="transform: translate(1662px, 1800px) scale(2.7) rotate(0deg)" class="" d="M4 59V4.6C41.8.5 38.6 37.5 4 34"/><path fill="none" fill-opacity="0.65" stroke="#000" stroke-linecap="round" stroke-linejoin="round" stroke-width="1.6666666666666665px" style="transform: translate(1797px, 1800px) scale(2.7) rotate(0deg)" class="" d="M4 0v52.5h28"/><path fill="none" fill-opacity="0.65" stroke="#000" stroke-linecap="round" stroke-linejoin="round" stroke-width="1.6666666666666665px" style="transform: translate(1945.5000000000002px, 1802px) scale(2.7) rotate(0deg)" class="" d="M4 0v40.5c0 21 38.5 20 38.5 0V0"/><path fill="none" fill-opacity="0.65" stroke="#000" stroke-linecap="round" stroke-linejoin="round" stroke-width="1.6666666666666665px" style="transform: translate(2134.5px, 1800px) scale(2.7) rotate(0deg)" class="" d="M37 14.1C31.5.6 4 .6 4 14.1s16 14 16 14c14.8 4 17 5 17 17s-33 14.5-33 0"/><path fill="none" fill-opacity="0.65" stroke="#000" stroke-linecap="round" stroke-linejoin="round" stroke-width="1.6666666666666665px" style="transform: translate(2296.5px, 1800px) scale(2.7) rotate(0deg)" class="" d="M0 0"/><path fill="none" fill-opacity="0.65" stroke="#000" stroke-linecap="round" stroke-linejoin="round" stroke-width="1.6666666666666665px" style="transform: translate(2472px, 1800px) scale(2.7) rotate(0deg)" class="" d="M35.5 4H4v25.5m0 29v-29m0 0h29"/><path fill="none" fill-opacity="0.65" stroke="#000" stroke-linecap="round" stroke-linejoin="round" stroke-width="1.6666666666666665px" style="transform: translate(2620.5px, 1800px) scale(2.7) rotate(0deg)" class="" d="M4 0v58"/><path fill="none" fill-opacity="0.65" stroke="#000" stroke-linecap="round" stroke-linejoin="round" stroke-width="1.6666666666666665px" style="transform: translate(2701.5px, 1795px) scale(2.7) rotate(0deg)" class="" d="M4 67.5V12l39 55.5V12"/><path fill="none" fill-opacity="0.65" stroke="#000" stroke-linecap="round" stroke-linejoin="round" stroke-width="1.6666666666666665px" style="transform: translate(2877px, 1800px) scale(2.7) rotate(0deg)" class="" d="M35 4H4v25.8m31 25.7H4V29.7m0 0h29.5"/><path fill="none" fill-opacity="0.65" stroke="#000" stroke-linecap="round" stroke-linejoin="round" stroke-width="1.6666666666666665px" style="transform: translate(3039px, 1800px) scale(2.7) rotate(0deg)" class="" d="M37 14.1C31.5.6 4 .6 4 14.1s16 14 16 14c14.8 4 17 5 17 17s-33 14.5-33 0"/></g></g></svg>