<?xml version="1.0" standalone="no"?>
<svg xmlns="http://www.w3.org/2000/svg" id="svg" width="95.9vw" style="transform: rotate(0.18deg) translate(0px, 0.16vw); cursor: pointer; " viewBox="0 0 2550 3300"><path d="M 0 0 M 2550 3300"/><g id="black-3"><g><path fill="none" fill-opacity="0.65" stroke="#000" stroke-linecap="round" stroke-linejoin="round" stroke-width="1.8px" style="transform: translate(400px, 150px) scale(2.5) rotate(0deg)" class="" d="M4 0v58"/><path fill="none" fill-opacity="0.65" stroke="#000" stroke-linecap="round" stroke-linejoin="round" stroke-width="1.8px" style="transform: translate(475px, 145px) scale(2.5) rotate(0deg)" class="" d="M4 67.5V12l39 55.5V12"/><path fill="none" fill-opacity="0.65" stroke="#000" stroke-linecap="round" stroke-linejoin="round" stroke-width="1.8px" style="transform: translate(637.5px, 150px) scale(2.5) rotate(0deg)" class="" d="M37 14.1C31.5.6 4 .6 4 14.1s16 14 16 14c14.8 4 17 5 17 17s-33 14.5-33 0"/><path fill="none" fill-opacity="0.65" stroke="#000" stroke-linecap="round" stroke-linejoin="round" stroke-width="1.8px" style="transform: translate(787.5px, 150px) scale(2.5) rotate(0deg)" class="" d="M0 4h20.8m20.7 0H20.7m0 0v55"/><path fill="none" fill-opacity="0.65" stroke="#000" stroke-linecap="round" stroke-linejoin="round" stroke-width="1.8px" style="transform: translate(950px, 150px) scale(2.5) rotate(0deg)" class="" d="M4 58.7V4.3c30-3.2 34.1 19.2 17.5 27M4 33.9c7.2.7 13.1-.3 17.5-2.4m0 0 15 27.3"/><path fill="none" fill-opacity="0.65" stroke="#000" stroke-linecap="round" stroke-linejoin="round" stroke-width="1.8px" style="transform: translate(1087.5px, 152px) scale(2.5) rotate(0deg)" class="" d="M4 0v40.5c0 21 38.5 20 38.5 0V0"/><path fill="none" fill-opacity="0.65" stroke="#000" stroke-linecap="round" stroke-linejoin="round" stroke-width="1.8px" style="transform: translate(1262.5px, 150px) scale(2.5) rotate(0deg)" class="" d="M49.5 20.5c-7.1-24.8-43.4-20.8-45 5L4 35a23.4 23.4 0 0 0 39.7 18.2l5.8-5.7"/><path fill="none" fill-opacity="0.65" stroke="#000" stroke-linecap="round" stroke-linejoin="round" stroke-width="1.8px" style="transform: translate(1450px, 150px) scale(2.5) rotate(0deg)" class="" d="M0 4h20.8m20.7 0H20.7m0 0v55"/><path fill="none" fill-opacity="0.65" stroke="#000" stroke-linecap="round" stroke-linejoin="round" stroke-width="1.8px" style="transform: translate(1612.5px, 150px) scale(2.5) rotate(0deg)" class="" d="M4 0v58"/><path fill="none" fill-opacity="0.65" stroke="#000" stroke-linecap="round" stroke-linejoin="round" stroke-width="1.8px" style="transform: translate(1687.5px, 150px) scale(2.5) rotate(0deg)" class="" d="M26.3 4c-28 0-31.4 54 0 53.5 31.4-.6 28-53.5 0-53.5Z"/><path fill="none" fill-opacity="0.65" stroke="#000" stroke-linecap="round" stroke-linejoin="round" stroke-width="1.8px" style="transform: translate(1875px, 145px) scale(2.5) rotate(0deg)" class="" d="M4 67.5V12l39 55.5V12"/><path fill="none" fill-opacity="0.65" stroke="#000" stroke-linecap="round" stroke-linejoin="round" stroke-width="1.8px" style="transform: translate(2037.5px, 150px) scale(2.5) rotate(0deg)" class="" d="M37 14.1C31.5.6 4 .6 4 14.1s16 14 16 14c14.8 4 17 5 17 17s-33 14.5-33 0"/></g><g><path fill="none" fill-opacity="0.65" stroke="#000" stroke-linecap="round" stroke-linejoin="round" stroke-width="1.8px" style="transform: translate(150px, 450px) scale(2.5) rotate(0deg)" class="" d="M35.5 4H4v25.5m0 29v-29m0 0h29"/><path fill="none" fill-opacity="0.65" stroke="#000" stroke-linecap="round" stroke-linejoin="round" stroke-width="1.8px" style="transform: translate(287.5px, 450px) scale(2.5) rotate(0deg)" class="" d="M26.3 4c-28 0-31.4 54 0 53.5 31.4-.6 28-53.5 0-53.5Z"/><path fill="none" fill-opacity="0.65" stroke="#000" stroke-linecap="round" stroke-linejoin="round" stroke-width="1.8px" style="transform: translate(475px, 450px) scale(2.5) rotate(0deg)" class="" d="M4 58.7V4.3c30-3.2 34.1 19.2 17.5 27M4 33.9c7.2.7 13.1-.3 17.5-2.4m0 0 15 27.3"/><path fill="none" fill-opacity="0.65" stroke="#000" stroke-linecap="round" stroke-linejoin="round" stroke-width="1.8px" style="transform: translate(612.5px, 450px) scale(2.5) rotate(0deg)" class="" d="M0 0"/><path fill="none" fill-opacity="0.65" stroke="#000" stroke-linecap="round" stroke-linejoin="round" stroke-width="1.8px" style="transform: translate(775px, 450px) scale(2.5) rotate(0deg)" class="" d="M4 55V4h18c1.7 0 3.3.3 4.8 1l2.7 1 2.4 1.3a13 13 0 0 1 5 4.7l.5 1c.4.6.7 1.4 1 2.2l1.6 4.3 1.2 5 .4 2 .3 4v2l-.3 4.4c0 .7-.2 1.5-.4 2.2l-.7 3a13 13 0 0 1-1.6 3.6l-.6 1a13 13 0 0 1-1.8 2.3l-1.2 1.2a13 13 0 0 1-2.9 2.2l-1.1.6a13 13 0 0 1-3.8 1.4l-1.7.3c-.9.2-1.7.3-2.6.3H4Z"/><path fill="none" fill-opacity="0.65" stroke="#000" stroke-linecap="round" stroke-linejoin="round" stroke-width="1.8px" style="transform: translate(937.5px, 450px) scale(2.5) rotate(0deg)" class="" d="M35 4H4v25.8m31 25.7H4V29.7m0 0h29.5"/><path fill="none" fill-opacity="0.65" stroke="#000" stroke-linecap="round" stroke-linejoin="round" stroke-width="1.8px" style="transform: translate(1087.5px, 450px) scale(2.5) rotate(0deg)" class="" d="M35.5 4H4v25.5m0 29v-29m0 0h29"/><path fill="none" fill-opacity="0.65" stroke="#000" stroke-linecap="round" stroke-linejoin="round" stroke-width="1.8px" style="transform: translate(1225px, 450px) scale(2.5) rotate(0deg)" class="" d="m4 57 6.3-18m35.2 18L39 39m0 0L26.5 4h-4L10.3 39M39 39H10.3"/><path fill="none" fill-opacity="0.65" stroke="#000" stroke-linecap="round" stroke-linejoin="round" stroke-width="1.8px" style="transform: translate(1387.5px, 450px) scale(2.5) rotate(0deg)" class="" d="M49.5 20.5c-7.1-24.8-43.4-20.8-45 5L4 35a23.4 23.4 0 0 0 39.7 18.2l5.8-5.7"/><path fill="none" fill-opacity="0.65" stroke="#000" stroke-linecap="round" stroke-linejoin="round" stroke-width="1.8px" style="transform: translate(1575px, 450px) scale(2.5) rotate(0deg)" class="" d="M35 4H4v25.8m31 25.7H4V29.7m0 0h29.5"/><path fill="none" fill-opacity="0.65" stroke="#000" stroke-linecap="round" stroke-linejoin="round" stroke-width="1.8px" style="transform: translate(1725px, 450px) scale(2.5) rotate(0deg)" class="" d="M4 57.5V2l25 55.5L52.5 2v55.5"/><path fill="none" fill-opacity="0.65" stroke="#000" stroke-linecap="round" stroke-linejoin="round" stroke-width="1.8px" style="transform: translate(1912.5px, 450px) scale(2.5) rotate(0deg)" class="" d="M35 4H4v25.8m31 25.7H4V29.7m0 0h29.5"/><path fill="none" fill-opacity="0.65" stroke="#000" stroke-linecap="round" stroke-linejoin="round" stroke-width="1.8px" style="transform: translate(2062.5px, 445px) scale(2.5) rotate(0deg)" class="" d="M4 67.5V12l39 55.5V12"/><path fill="none" fill-opacity="0.65" stroke="#000" stroke-linecap="round" stroke-linejoin="round" stroke-width="1.8px" style="transform: translate(2225px, 450px) scale(2.5) rotate(0deg)" class="" d="M0 4h20.8m20.7 0H20.7m0 0v55"/></g><path fill="none" fill-opacity="0.65" stroke="#000" stroke-linecap="round" stroke-linejoin="round" stroke-width="1.5px" style="transform: translate(1200px, 1300px) scale(3) rotate(270deg)" class="" d="M180.5 30.5L6.5 30.5M40 3.50003L6.5 30.5 40 57.5"/><g><path fill="none" fill-opacity="0.65" stroke="#000" stroke-linecap="round" stroke-linejoin="round" stroke-width="1.8px" style="transform: translate(300px, 1500px) scale(2.5) rotate(0deg)" class="" d="M4 55V4h18c1.7 0 3.3.3 4.8 1l2.7 1 2.4 1.3a13 13 0 0 1 5 4.7l.5 1c.4.6.7 1.4 1 2.2l1.6 4.3 1.2 5 .4 2 .3 4v2l-.3 4.4c0 .7-.2 1.5-.4 2.2l-.7 3a13 13 0 0 1-1.6 3.6l-.6 1a13 13 0 0 1-1.8 2.3l-1.2 1.2a13 13 0 0 1-2.9 2.2l-1.1.6a13 13 0 0 1-3.8 1.4l-1.7.3c-.9.2-1.7.3-2.6.3H4Z"/><path fill="none" fill-opacity="0.65" stroke="#000" stroke-linecap="round" stroke-linejoin="round" stroke-width="1.8px" style="transform: translate(462.5px, 1500px) scale(2.5) rotate(0deg)" class="" d="M26.3 4c-28 0-31.4 54 0 53.5 31.4-.6 28-53.5 0-53.5Z"/><path fill="none" fill-opacity="0.65" stroke="#000" stroke-linecap="round" stroke-linejoin="round" stroke-width="1.8px" style="transform: translate(650px, 1500px) scale(2.5) rotate(0deg)" class="" d="M0 0"/><path fill="none" fill-opacity="0.65" stroke="#000" stroke-linecap="round" stroke-linejoin="round" stroke-width="1.8px" style="transform: translate(812.5px, 1500px) scale(2.5) rotate(0deg)" class="" d="M4 58.7V4.3c30-3.2 34.1 19.2 17.5 27M4 33.9c7.2.7 13.1-.3 17.5-2.4m0 0 15 27.3"/><path fill="none" fill-opacity="0.65" stroke="#000" stroke-linecap="round" stroke-linejoin="round" stroke-width="1.8px" style="transform: translate(950px, 1500px) scale(2.5) rotate(0deg)" class="" d="M4 0v58"/><path fill="none" fill-opacity="0.65" stroke="#000" stroke-linecap="round" stroke-linejoin="round" stroke-width="1.8px" style="transform: translate(1025px, 1498px) scale(2.5) rotate(0deg)" class="" d="m46 19-2-4.6a13 13 0 0 0-1.4-2.6l-.8-1.2a13 13 0 0 0-5.9-4.5l-1.6-.6a13 13 0 0 0-2.7-.7l-3.1-.5a13 13 0 0 0-4 0l-3.4.5-2.1.5-1.4.5a13 13 0 0 0-6 4.1l-1.2 1.5A13 13 0 0 0 9 13.8l-2 3.7a13 13 0 0 0-.7 2l-1.3 4.1a13 13 0 0 0-.5 2.8L4 30.5v2l.3 4c0 1 .2 2 .5 2.9l1 3.4A13 13 0 0 0 7.5 46L9 48.5a13 13 0 0 0 2.3 2.7l2.2 2a13 13 0 0 0 3.3 2.1l1.6.8c1.4.6 2.9 1 4.3 1l2.8.3h2l3.6-.3a13 13 0 0 0 3.7-.8l1.2-.5a13 13 0 0 0 5.7-4.3l1.4-1.8a13 13 0 0 0 1.5-2.6L46 44a13 13 0 0 0 1.1-5.2V34H28.5"/><path fill="none" fill-opacity="0.65" stroke="#000" stroke-linecap="round" stroke-linejoin="round" stroke-width="1.8px" style="transform: translate(1200px, 1500px) scale(2.5) rotate(0deg)" class="" d="M4 0v29m0 29V29m0 0h38m0 0V0m0 29v29"/><path fill="none" fill-opacity="0.65" stroke="#000" stroke-linecap="round" stroke-linejoin="round" stroke-width="1.8px" style="transform: translate(1375px, 1500px) scale(2.5) rotate(0deg)" class="" d="M0 4h20.8m20.7 0H20.7m0 0v55"/><path fill="none" fill-opacity="0.65" stroke="#000" stroke-linecap="round" stroke-linejoin="round" stroke-width="1.8px" style="transform: translate(1537.5px, 1500px) scale(2.5) rotate(0deg)" class="" d="M0 0"/><path fill="none" fill-opacity="0.65" stroke="#000" stroke-linecap="round" stroke-linejoin="round" stroke-width="1.8px" style="transform: translate(1700px, 1500px) scale(2.5) rotate(0deg)" class="" d="M4 0v29m0 29V29m0 0h38m0 0V0m0 29v29"/><path fill="none" fill-opacity="0.65" stroke="#000" stroke-linecap="round" stroke-linejoin="round" stroke-width="1.8px" style="transform: translate(1875px, 1500px) scale(2.5) rotate(0deg)" class="" d="m4 57 6.3-18m35.2 18L39 39m0 0L26.5 4h-4L10.3 39M39 39H10.3"/><path fill="none" fill-opacity="0.65" stroke="#000" stroke-linecap="round" stroke-linejoin="round" stroke-width="1.8px" style="transform: translate(2037.5px, 1500px) scale(2.5) rotate(0deg)" class="" d="M4 0v52.5h28"/><path fill="none" fill-opacity="0.65" stroke="#000" stroke-linecap="round" stroke-linejoin="round" stroke-width="1.8px" style="transform: translate(2175px, 1500px) scale(2.5) rotate(0deg)" class="" d="M4 0v52.5h28"/></g><path fill="none" fill-opacity="0.65" stroke="#000" stroke-linecap="round" stroke-linejoin="round" stroke-width="1.5px" style="transform: translate(1200px, 2400px) scale(3) rotate(270deg)" class="" d="M180.5 30.5L6.5 30.5M40 3.50003L6.5 30.5 40 57.5"/><rect fill="none" fill-opacity="0.65" stroke="#000" stroke-linecap="round" stroke-linejoin="round" stroke-width="5px" x="700" y="2550" width="1200" height="450"/><g><path fill="none" fill-opacity="0.65" stroke="#000" stroke-linecap="round" stroke-linejoin="round" stroke-width="4.5px" style="transform: translate(770px, 2650px) scale(1) rotate(0deg)" class="" d="M35.5 4H4v25.5m0 29v-29m0 0h29"/><path fill="none" fill-opacity="0.65" stroke="#000" stroke-linecap="round" stroke-linejoin="round" stroke-width="4.5px" style="transform: translate(825px, 2650px) scale(1) rotate(0deg)" class="" d="M4 58.7V4.3c30-3.2 34.1 19.2 17.5 27M4 33.9c7.2.7 13.1-.3 17.5-2.4m0 0 15 27.3"/><path fill="none" fill-opacity="0.65" stroke="#000" stroke-linecap="round" stroke-linejoin="round" stroke-width="4.5px" style="transform: translate(880px, 2650px) scale(1) rotate(0deg)" class="" d="M4 0v58"/><path fill="none" fill-opacity="0.65" stroke="#000" stroke-linecap="round" stroke-linejoin="round" stroke-width="4.5px" style="transform: translate(910px, 2650px) scale(1) rotate(0deg)" class="" d="M0 0"/><path fill="none" fill-opacity="0.65" stroke="#000" stroke-linecap="round" stroke-linejoin="round" stroke-width="4.5px" style="transform: translate(975px, 2650px) scale(1) rotate(0deg)" class="" d="M0 0"/><path fill="none" fill-opacity="0.65" stroke="#000" stroke-linecap="round" stroke-linejoin="round" stroke-width="4.5px" style="transform: translate(1040px, 2650px) scale(1) rotate(0deg)" class="" d="M0 0"/><path fill="none" fill-opacity="0.65" stroke="#000" stroke-linecap="round" stroke-linejoin="round" stroke-width="4.5px" style="transform: translate(1105px, 2650px) scale(1) rotate(0deg)" class="" d="M4 15C6 1 31.5-.3 31.5 15 31.5 30.7 4 53 4 60c0-3 26 0 30.5 0"/><path fill="none" fill-opacity="0.65" stroke="#000" stroke-linecap="round" stroke-linejoin="round" stroke-width="4.5px" style="transform: translate(1162px, 2650px) scale(1) rotate(0deg)" class="" d="M4 59V4.6C41.8.5 38.6 37.5 4 34"/><path fill="none" fill-opacity="0.65" stroke="#000" stroke-linecap="round" stroke-linejoin="round" stroke-width="4.5px" style="transform: translate(1212px, 2650px) scale(1) rotate(0deg)" class="" d="M4 57.5V2l25 55.5L52.5 2v55.5"/></g><path fill="none" fill-opacity="0.65" stroke="#000" stroke-linecap="round" stroke-linejoin="round" stroke-width="5.625px" style="transform: translate(1550px, 2700px) scale(0.8) rotate(180deg)" class="" d="M180.5 30.5L6.5 30.5M40 3.50003L6.5 30.5 40 57.5"/><g><path fill="none" fill-opacity="0.65" stroke="#000" stroke-linecap="round" stroke-linejoin="round" stroke-width="4.5px" style="transform: translate(1670px, 2647px) scale(1) rotate(0deg)" class="" d="M35 65V11L7 50h38"/><path fill="none" fill-opacity="0.65" stroke="#000" stroke-linecap="round" stroke-linejoin="round" stroke-width="4.5px" style="transform: translate(1733px, 2650px) scale(1) rotate(0deg)" class="" d="M4 59V4.6C41.8.5 38.6 37.5 4 34"/><path fill="none" fill-opacity="0.65" stroke="#000" stroke-linecap="round" stroke-linejoin="round" stroke-width="4.5px" style="transform: translate(1783px, 2650px) scale(1) rotate(0deg)" class="" d="M4 57.5V2l25 55.5L52.5 2v55.5"/></g><g><path fill="none" fill-opacity="0.65" stroke="#000" stroke-linecap="round" stroke-linejoin="round" stroke-width="4.5px" style="transform: translate(770px, 2750px) scale(1) rotate(0deg)" class="" d="M37 14.1C31.5.6 4 .6 4 14.1s16 14 16 14c14.8 4 17 5 17 17s-33 14.5-33 0"/><path fill="none" fill-opacity="0.65" stroke="#000" stroke-linecap="round" stroke-linejoin="round" stroke-width="4.5px" style="transform: translate(830px, 2750px) scale(1) rotate(0deg)" class="" d="m4 57 6.3-18m35.2 18L39 39m0 0L26.5 4h-4L10.3 39M39 39H10.3"/><path fill="none" fill-opacity="0.65" stroke="#000" stroke-linecap="round" stroke-linejoin="round" stroke-width="4.5px" style="transform: translate(895px, 2750px) scale(1) rotate(0deg)" class="" d="M0 4h20.8m20.7 0H20.7m0 0v55"/><path fill="none" fill-opacity="0.65" stroke="#000" stroke-linecap="round" stroke-linejoin="round" stroke-width="4.5px" style="transform: translate(960px, 2750px) scale(1) rotate(0deg)" class="" d="M0 0"/><path fill="none" fill-opacity="0.65" stroke="#000" stroke-linecap="round" stroke-linejoin="round" stroke-width="4.5px" style="transform: translate(1025px, 2750px) scale(1) rotate(0deg)" class="" d="M0 0"/><path fill="none" fill-opacity="0.65" stroke="#000" stroke-linecap="round" stroke-linejoin="round" stroke-width="4.5px" style="transform: translate(1090px, 2750px) scale(1) rotate(0deg)" class="" d="m2 15 17-9v52.5"/><path fill="none" fill-opacity="0.65" stroke="#000" stroke-linecap="round" stroke-linejoin="round" stroke-width="4.5px" style="transform: translate(1140px, 2750px) scale(1) rotate(0deg)" class="" d="M4 15C6 1 31.5-.3 31.5 15 31.5 30.7 4 53 4 60c0-3 26 0 30.5 0"/><path fill="none" fill-opacity="0.65" stroke="#000" stroke-linecap="round" stroke-linejoin="round" stroke-width="4.5px" style="transform: translate(1197px, 2750px) scale(1) rotate(0deg)" class="" d="M4 59V4.6C41.8.5 38.6 37.5 4 34"/><path fill="none" fill-opacity="0.65" stroke="#000" stroke-linecap="round" stroke-linejoin="round" stroke-width="4.5px" style="transform: translate(1247px, 2750px) scale(1) rotate(0deg)" class="" d="M4 57.5V2l25 55.5L52.5 2v55.5"/></g><path fill="none" fill-opacity="0.65" stroke="#000" stroke-linecap="round" stroke-linejoin="round" stroke-width="5.625px" style="transform: translate(1550px, 2800px) scale(0.8) rotate(180deg)" class="" d="M180.5 30.5L6.5 30.5M40 3.50003L6.5 30.5 40 57.5"/><g><path fill="none" fill-opacity="0.65" stroke="#000" stroke-linecap="round" stroke-linejoin="round" stroke-width="4.5px" style="transform: translate(1670px, 2750px) scale(1) rotate(0deg)" class="" d="M35.9 13.7c-9-18-34.2-10.9-31.7 20.1m0 0c.2 22.8 24.5 28.3 31.7 10.4C43 26.3 13.2 16.8 4.2 33.8Z"/><path fill="none" fill-opacity="0.65" stroke="#000" stroke-linecap="round" stroke-linejoin="round" stroke-width="4.5px" style="transform: translate(1730px, 2750px) scale(1) rotate(0deg)" class="" d="M4 59V4.6C41.8.5 38.6 37.5 4 34"/><path fill="none" fill-opacity="0.65" stroke="#000" stroke-linecap="round" stroke-linejoin="round" stroke-width="4.5px" style="transform: translate(1780px, 2750px) scale(1) rotate(0deg)" class="" d="M4 57.5V2l25 55.5L52.5 2v55.5"/></g><g><path fill="none" fill-opacity="0.65" stroke="#000" stroke-linecap="round" stroke-linejoin="round" stroke-width="4.5px" style="transform: translate(770px, 2850px) scale(1) rotate(0deg)" class="" d="M37 14.1C31.5.6 4 .6 4 14.1s16 14 16 14c14.8 4 17 5 17 17s-33 14.5-33 0"/><path fill="none" fill-opacity="0.65" stroke="#000" stroke-linecap="round" stroke-linejoin="round" stroke-width="4.5px" style="transform: translate(830px, 2852px) scale(1) rotate(0deg)" class="" d="M4 0v40.5c0 21 38.5 20 38.5 0V0"/><path fill="none" fill-opacity="0.65" stroke="#000" stroke-linecap="round" stroke-linejoin="round" stroke-width="4.5px" style="transform: translate(900px, 2845px) scale(1) rotate(0deg)" class="" d="M4 67.5V12l39 55.5V12"/><path fill="none" fill-opacity="0.65" stroke="#000" stroke-linecap="round" stroke-linejoin="round" stroke-width="4.5px" style="transform: translate(965px, 2850px) scale(1) rotate(0deg)" class="" d="M0 0"/><path fill="none" fill-opacity="0.65" stroke="#000" stroke-linecap="round" stroke-linejoin="round" stroke-width="4.5px" style="transform: translate(1030px, 2850px) scale(1) rotate(0deg)" class="" d="M0 0"/><path fill="none" fill-opacity="0.65" stroke="#000" stroke-linecap="round" stroke-linejoin="round" stroke-width="4.5px" style="transform: translate(1095px, 2850px) scale(1) rotate(0deg)" class="" d="m2 15 17-9v52.5"/><path fill="none" fill-opacity="0.65" stroke="#000" stroke-linecap="round" stroke-linejoin="round" stroke-width="4.5px" style="transform: translate(1145px, 2852px) scale(1) rotate(0deg)" class="" d="M37 29c0 7.5-2.1 14.1-5.3 18.8C28.4 52.5 24.3 55 20 55c-4.3 0-8.4-2.5-11.7-7.2A33.5 33.5 0 0 1 3 29c0-7.5 2.1-14.1 5.3-18.8C11.6 5.5 15.7 3 20 3c4.3 0 8.4 2.5 11.7 7.2A33.5 33.5 0 0 1 37 29Z"/><path fill="none" fill-opacity="0.65" stroke="#000" stroke-linecap="round" stroke-linejoin="round" stroke-width="4.5px" style="transform: translate(1205px, 2850px) scale(1) rotate(0deg)" class="" d="m4 57 6.3-18m35.2 18L39 39m0 0L26.5 4h-4L10.3 39M39 39H10.3"/><path fill="none" fill-opacity="0.65" stroke="#000" stroke-linecap="round" stroke-linejoin="round" stroke-width="4.5px" style="transform: translate(1270px, 2850px) scale(1) rotate(0deg)" class="" d="M4 57.5V2l25 55.5L52.5 2v55.5"/></g><path fill="none" fill-opacity="0.65" stroke="#000" stroke-linecap="round" stroke-linejoin="round" stroke-width="5.625px" style="transform: translate(1550px, 2900px) scale(0.8) rotate(180deg)" class="" d="M180.5 30.5L6.5 30.5M40 3.50003L6.5 30.5 40 57.5"/><g><path fill="none" fill-opacity="0.65" stroke="#000" stroke-linecap="round" stroke-linejoin="round" stroke-width="4.5px" style="transform: translate(1670px, 2850px) scale(1) rotate(0deg)" class="" d="M4 15C6 1 31.5-.3 31.5 15 31.5 30.7 4 53 4 60c0-3 26 0 30.5 0"/><path fill="none" fill-opacity="0.65" stroke="#000" stroke-linecap="round" stroke-linejoin="round" stroke-width="4.5px" style="transform: translate(1727px, 2850px) scale(1) rotate(0deg)" class="" d="M4 59V4.6C41.8.5 38.6 37.5 4 34"/><path fill="none" fill-opacity="0.65" stroke="#000" stroke-linecap="round" stroke-linejoin="round" stroke-width="4.5px" style="transform: translate(1777px, 2850px) scale(1) rotate(0deg)" class="" d="M4 57.5V2l25 55.5L52.5 2v55.5"/></g></g></svg>