<?xml version="1.0" standalone="no"?>
<svg xmlns="http://www.w3.org/2000/svg" id="svg" width="95.9vw" style="transform: rotate(0.18deg) translate(0px, 0.16vw); cursor: pointer; background: rgb(255, 255, 255);" viewBox="0 0 3300 2550"><path d="M 0 0 M 3300 2550"/><g id="black-3"><g><path fill="none" fill-opacity="0.65" stroke="#000" stroke-linecap="round" stroke-linejoin="round" stroke-width="1.0465116279069768px" style="transform: translate(180px, 450px) scale(4.3) rotate(0deg)" class="" d="M4 0v58"/><path fill="none" fill-opacity="0.65" stroke="#000" stroke-linecap="round" stroke-linejoin="round" stroke-width="1.0465116279069768px" style="transform: translate(309px, 445px) scale(4.3) rotate(0deg)" class="" d="M4 67.5V12l39 55.5V12"/><path fill="none" fill-opacity="0.65" stroke="#000" stroke-linecap="round" stroke-linejoin="round" stroke-width="1.0465116279069768px" style="transform: translate(588.5px, 450px) scale(4.3) rotate(0deg)" class="" d="M37 14.1C31.5.6 4 .6 4 14.1s16 14 16 14c14.8 4 17 5 17 17s-33 14.5-33 0"/><path fill="none" fill-opacity="0.65" stroke="#000" stroke-linecap="round" stroke-linejoin="round" stroke-width="1.0465116279069768px" style="transform: translate(846.5px, 450px) scale(4.3) rotate(0deg)" class="" d="M0 4h20.8m20.7 0H20.7m0 0v55"/><path fill="none" fill-opacity="0.65" stroke="#000" stroke-linecap="round" stroke-linejoin="round" stroke-width="1.0465116279069768px" style="transform: translate(1126px, 450px) scale(4.3) rotate(0deg)" class="" d="M4 58.7V4.3c30-3.2 34.1 19.2 17.5 27M4 33.9c7.2.7 13.1-.3 17.5-2.4m0 0 15 27.3"/><path fill="none" fill-opacity="0.65" stroke="#000" stroke-linecap="round" stroke-linejoin="round" stroke-width="1.0465116279069768px" style="transform: translate(1362.5px, 452px) scale(4.3) rotate(0deg)" class="" d="M4 0v40.5c0 21 38.5 20 38.5 0V0"/><path fill="none" fill-opacity="0.65" stroke="#000" stroke-linecap="round" stroke-linejoin="round" stroke-width="1.0465116279069768px" style="transform: translate(1663.5px, 450px) scale(4.3) rotate(0deg)" class="" d="M49.5 20.5c-7.1-24.8-43.4-20.8-45 5L4 35a23.4 23.4 0 0 0 39.7 18.2l5.8-5.7"/><path fill="none" fill-opacity="0.65" stroke="#000" stroke-linecap="round" stroke-linejoin="round" stroke-width="1.0465116279069768px" style="transform: translate(1986px, 450px) scale(4.3) rotate(0deg)" class="" d="M0 4h20.8m20.7 0H20.7m0 0v55"/><path fill="none" fill-opacity="0.65" stroke="#000" stroke-linecap="round" stroke-linejoin="round" stroke-width="1.0465116279069768px" style="transform: translate(2265.5px, 450px) scale(4.3) rotate(0deg)" class="" d="M4 0v58"/><path fill="none" fill-opacity="0.65" stroke="#000" stroke-linecap="round" stroke-linejoin="round" stroke-width="1.0465116279069768px" style="transform: translate(2394.5px, 450px) scale(4.3) rotate(0deg)" class="" d="M26.3 4c-28 0-31.4 54 0 53.5 31.4-.6 28-53.5 0-53.5Z"/><path fill="none" fill-opacity="0.65" stroke="#000" stroke-linecap="round" stroke-linejoin="round" stroke-width="1.0465116279069768px" style="transform: translate(2717px, 445px) scale(4.3) rotate(0deg)" class="" d="M4 67.5V12l39 55.5V12"/><path fill="none" fill-opacity="0.65" stroke="#000" stroke-linecap="round" stroke-linejoin="round" stroke-width="1.0465116279069768px" style="transform: translate(2996.5px, 450px) scale(4.3) rotate(0deg)" class="" d="M37 14.1C31.5.6 4 .6 4 14.1s16 14 16 14c14.8 4 17 5 17 17s-33 14.5-33 0"/></g><g><path fill="none" fill-opacity="0.65" stroke="#000" stroke-linecap="round" stroke-linejoin="round" stroke-width="1.0465116279069768px" style="transform: translate(1300px, 1100px) scale(4.3) rotate(0deg)" class="" d="M35.5 4H4v25.5m0 29v-29m0 0h29"/><path fill="none" fill-opacity="0.65" stroke="#000" stroke-linecap="round" stroke-linejoin="round" stroke-width="1.0465116279069768px" style="transform: translate(1536.5px, 1100px) scale(4.3) rotate(0deg)" class="" d="M26.3 4c-28 0-31.4 54 0 53.5 31.4-.6 28-53.5 0-53.5Z"/><path fill="none" fill-opacity="0.65" stroke="#000" stroke-linecap="round" stroke-linejoin="round" stroke-width="1.0465116279069768px" style="transform: translate(1859px, 1100px) scale(4.3) rotate(0deg)" class="" d="M4 58.7V4.3c30-3.2 34.1 19.2 17.5 27M4 33.9c7.2.7 13.1-.3 17.5-2.4m0 0 15 27.3"/></g><g><path fill="none" fill-opacity="0.65" stroke="#000" stroke-linecap="round" stroke-linejoin="round" stroke-width="1.125px" style="transform: translate(500px, 1700px) scale(4) rotate(0deg)" class="" d="M4 55V4h18c1.7 0 3.3.3 4.8 1l2.7 1 2.4 1.3a13 13 0 0 1 5 4.7l.5 1c.4.6.7 1.4 1 2.2l1.6 4.3 1.2 5 .4 2 .3 4v2l-.3 4.4c0 .7-.2 1.5-.4 2.2l-.7 3a13 13 0 0 1-1.6 3.6l-.6 1a13 13 0 0 1-1.8 2.3l-1.2 1.2a13 13 0 0 1-2.9 2.2l-1.1.6a13 13 0 0 1-3.8 1.4l-1.7.3c-.9.2-1.7.3-2.6.3H4Z"/><path fill="none" fill-opacity="0.65" stroke="#000" stroke-linecap="round" stroke-linejoin="round" stroke-width="1.125px" style="transform: translate(760px, 1700px) scale(4) rotate(0deg)" class="" d="M35 4H4v25.8m31 25.7H4V29.7m0 0h29.5"/><path fill="none" fill-opacity="0.65" stroke="#000" stroke-linecap="round" stroke-linejoin="round" stroke-width="1.125px" style="transform: translate(1000px, 1700px) scale(4) rotate(0deg)" class="" d="M35.5 4H4v25.5m0 29v-29m0 0h29"/><path fill="none" fill-opacity="0.65" stroke="#000" stroke-linecap="round" stroke-linejoin="round" stroke-width="1.125px" style="transform: translate(1220px, 1700px) scale(4) rotate(0deg)" class="" d="m4 57 6.3-18m35.2 18L39 39m0 0L26.5 4h-4L10.3 39M39 39H10.3"/><path fill="none" fill-opacity="0.65" stroke="#000" stroke-linecap="round" stroke-linejoin="round" stroke-width="1.125px" style="transform: translate(1480px, 1700px) scale(4) rotate(0deg)" class="" d="M49.5 20.5c-7.1-24.8-43.4-20.8-45 5L4 35a23.4 23.4 0 0 0 39.7 18.2l5.8-5.7"/><path fill="none" fill-opacity="0.65" stroke="#000" stroke-linecap="round" stroke-linejoin="round" stroke-width="1.125px" style="transform: translate(1780px, 1700px) scale(4) rotate(0deg)" class="" d="M35 4H4v25.8m31 25.7H4V29.7m0 0h29.5"/><path fill="none" fill-opacity="0.65" stroke="#000" stroke-linecap="round" stroke-linejoin="round" stroke-width="1.125px" style="transform: translate(2020px, 1700px) scale(4) rotate(0deg)" class="" d="M4 57.5V2l25 55.5L52.5 2v55.5"/><path fill="none" fill-opacity="0.65" stroke="#000" stroke-linecap="round" stroke-linejoin="round" stroke-width="1.125px" style="transform: translate(2320px, 1700px) scale(4) rotate(0deg)" class="" d="M35 4H4v25.8m31 25.7H4V29.7m0 0h29.5"/><path fill="none" fill-opacity="0.65" stroke="#000" stroke-linecap="round" stroke-linejoin="round" stroke-width="1.125px" style="transform: translate(2560px, 1695px) scale(4) rotate(0deg)" class="" d="M4 67.5V12l39 55.5V12"/><path fill="none" fill-opacity="0.65" stroke="#000" stroke-linecap="round" stroke-linejoin="round" stroke-width="1.125px" style="transform: translate(2820px, 1700px) scale(4) rotate(0deg)" class="" d="M0 4h20.8m20.7 0H20.7m0 0v55"/></g></g></svg>