<?xml version="1.0" standalone="no"?>
<svg xmlns="http://www.w3.org/2000/svg" id="svg" width="95.9vw" style="transform: rotate(0.18deg) translate(0px, 0.16vw); cursor: pointer; " viewBox="0 0 2550 3300"><path d="M 0 0 M 2550 3300"/><g id="black-3"><g><path fill="none" fill-opacity="0.65" stroke="#000" stroke-linecap="round" stroke-linejoin="round" stroke-width="0.9px" style="transform: translate(120px, 250px) scale(5) rotate(0deg)" class="" d="M4 59V4.6C41.8.5 38.6 37.5 4 34"/><path fill="none" fill-opacity="0.65" stroke="#000" stroke-linecap="round" stroke-linejoin="round" stroke-width="0.9px" style="transform: translate(370px, 250px) scale(5) rotate(0deg)" class="" d="M4 0v52.5h28"/><path fill="none" fill-opacity="0.65" stroke="#000" stroke-linecap="round" stroke-linejoin="round" stroke-width="0.9px" style="transform: translate(645px, 250px) scale(5) rotate(0deg)" class="" d="M26.3 4c-28 0-31.4 54 0 53.5 31.4-.6 28-53.5 0-53.5Z"/><path fill="none" fill-opacity="0.65" stroke="#000" stroke-linecap="round" stroke-linejoin="round" stroke-width="0.9px" style="transform: translate(1020px, 250px) scale(5) rotate(0deg)" class="" d="M0 4h20.8m20.7 0H20.7m0 0v55"/><path fill="none" fill-opacity="0.65" stroke="#000" stroke-linecap="round" stroke-linejoin="round" stroke-width="0.9px" style="transform: translate(1345px, 250px) scale(5) rotate(0deg)" class="" d="M0 4h20.8m20.7 0H20.7m0 0v55"/><path fill="none" fill-opacity="0.65" stroke="#000" stroke-linecap="round" stroke-linejoin="round" stroke-width="0.9px" style="transform: translate(1670px, 250px) scale(5) rotate(0deg)" class="" d="M4 0v58"/><path fill="none" fill-opacity="0.65" stroke="#000" stroke-linecap="round" stroke-linejoin="round" stroke-width="0.9px" style="transform: translate(1820px, 245px) scale(5) rotate(0deg)" class="" d="M4 67.5V12l39 55.5V12"/><path fill="none" fill-opacity="0.65" stroke="#000" stroke-linecap="round" stroke-linejoin="round" stroke-width="0.9px" style="transform: translate(2145px, 248px) scale(5) rotate(0deg)" class="" d="m46 19-2-4.6a13 13 0 0 0-1.4-2.6l-.8-1.2a13 13 0 0 0-5.9-4.5l-1.6-.6a13 13 0 0 0-2.7-.7l-3.1-.5a13 13 0 0 0-4 0l-3.4.5-2.1.5-1.4.5a13 13 0 0 0-6 4.1l-1.2 1.5A13 13 0 0 0 9 13.8l-2 3.7a13 13 0 0 0-.7 2l-1.3 4.1a13 13 0 0 0-.5 2.8L4 30.5v2l.3 4c0 1 .2 2 .5 2.9l1 3.4A13 13 0 0 0 7.5 46L9 48.5a13 13 0 0 0 2.3 2.7l2.2 2a13 13 0 0 0 3.3 2.1l1.6.8c1.4.6 2.9 1 4.3 1l2.8.3h2l3.6-.3a13 13 0 0 0 3.7-.8l1.2-.5a13 13 0 0 0 5.7-4.3l1.4-1.8a13 13 0 0 0 1.5-2.6L46 44a13 13 0 0 0 1.1-5.2V34H28.5"/></g><path fill="none" fill-opacity="0.65" stroke="#000" stroke-linecap="round" stroke-linejoin="round" stroke-width="0.45px" style="transform: translate(1000px, 2840px) scale(10) rotate(270deg)" class="" d="M180.5 30.5L6.5 30.5M40 3.50003L6.5 30.5 40 57.5"/></g></svg>