<?xml version="1.0" standalone="no"?>
<svg xmlns="http://www.w3.org/2000/svg" id="svg" width="95.9vw" style="transform: rotate(0.18deg) translate(0px, 0.16vw); cursor: pointer; " viewBox="0 0 2550 3300"><path d="M 0 0 M 2550 3300"/><g id="black-3"><g><path fill="none" fill-opacity="0.65" stroke="#000" stroke-linecap="round" stroke-linejoin="round" stroke-width="0.9574468085106382px" style="transform: translate(220px, 250px) scale(4.7) rotate(0deg)" class="" d="M4 59V4.6C41.8.5 38.6 37.5 4 34"/><path fill="none" fill-opacity="0.65" stroke="#000" stroke-linecap="round" stroke-linejoin="round" stroke-width="0.9574468085106382px" style="transform: translate(455px, 250px) scale(4.7) rotate(0deg)" class="" d="M4 0v52.5h28"/><path fill="none" fill-opacity="0.65" stroke="#000" stroke-linecap="round" stroke-linejoin="round" stroke-width="0.9574468085106382px" style="transform: translate(713.5px, 250px) scale(4.7) rotate(0deg)" class="" d="M26.3 4c-28 0-31.4 54 0 53.5 31.4-.6 28-53.5 0-53.5Z"/><path fill="none" fill-opacity="0.65" stroke="#000" stroke-linecap="round" stroke-linejoin="round" stroke-width="0.9574468085106382px" style="transform: translate(1066px, 250px) scale(4.7) rotate(0deg)" class="" d="M0 4h20.8m20.7 0H20.7m0 0v55"/><path fill="none" fill-opacity="0.65" stroke="#000" stroke-linecap="round" stroke-linejoin="round" stroke-width="0.9574468085106382px" style="transform: translate(1371.5px, 250px) scale(4.7) rotate(0deg)" class="" d="M0 4h20.8m20.7 0H20.7m0 0v55"/><path fill="none" fill-opacity="0.65" stroke="#000" stroke-linecap="round" stroke-linejoin="round" stroke-width="0.9574468085106382px" style="transform: translate(1677px, 250px) scale(4.7) rotate(0deg)" class="" d="M4 0v58"/><path fill="none" fill-opacity="0.65" stroke="#000" stroke-linecap="round" stroke-linejoin="round" stroke-width="0.9574468085106382px" style="transform: translate(1818px, 245px) scale(4.7) rotate(0deg)" class="" d="M4 67.5V12l39 55.5V12"/><path fill="none" fill-opacity="0.65" stroke="#000" stroke-linecap="round" stroke-linejoin="round" stroke-width="0.9574468085106382px" style="transform: translate(2123.5px, 248px) scale(4.7) rotate(0deg)" class="" d="m46 19-2-4.6a13 13 0 0 0-1.4-2.6l-.8-1.2a13 13 0 0 0-5.9-4.5l-1.6-.6a13 13 0 0 0-2.7-.7l-3.1-.5a13 13 0 0 0-4 0l-3.4.5-2.1.5-1.4.5a13 13 0 0 0-6 4.1l-1.2 1.5A13 13 0 0 0 9 13.8l-2 3.7a13 13 0 0 0-.7 2l-1.3 4.1a13 13 0 0 0-.5 2.8L4 30.5v2l.3 4c0 1 .2 2 .5 2.9l1 3.4A13 13 0 0 0 7.5 46L9 48.5a13 13 0 0 0 2.3 2.7l2.2 2a13 13 0 0 0 3.3 2.1l1.6.8c1.4.6 2.9 1 4.3 1l2.8.3h2l3.6-.3a13 13 0 0 0 3.7-.8l1.2-.5a13 13 0 0 0 5.7-4.3l1.4-1.8a13 13 0 0 0 1.5-2.6L46 44a13 13 0 0 0 1.1-5.2V34H28.5"/></g><rect fill="none" fill-opacity="0.65" stroke="#000" stroke-linecap="round" stroke-linejoin="round" stroke-width="5px" x="150" y="850" width="1200" height="450"/><g><path fill="none" fill-opacity="0.65" stroke="#000" stroke-linecap="round" stroke-linejoin="round" stroke-width="4.5px" style="transform: translate(220px, 950px) scale(1) rotate(0deg)" class="" d="M35.5 4H4v25.5m0 29v-29m0 0h29"/><path fill="none" fill-opacity="0.65" stroke="#000" stroke-linecap="round" stroke-linejoin="round" stroke-width="4.5px" style="transform: translate(275px, 950px) scale(1) rotate(0deg)" class="" d="M4 58.7V4.3c30-3.2 34.1 19.2 17.5 27M4 33.9c7.2.7 13.1-.3 17.5-2.4m0 0 15 27.3"/><path fill="none" fill-opacity="0.65" stroke="#000" stroke-linecap="round" stroke-linejoin="round" stroke-width="4.5px" style="transform: translate(330px, 950px) scale(1) rotate(0deg)" class="" d="M4 0v58"/><path fill="none" fill-opacity="0.65" stroke="#000" stroke-linecap="round" stroke-linejoin="round" stroke-width="4.5px" style="transform: translate(360px, 950px) scale(1) rotate(0deg)" class="" d="M0 0"/><path fill="none" fill-opacity="0.65" stroke="#000" stroke-linecap="round" stroke-linejoin="round" stroke-width="4.5px" style="transform: translate(425px, 950px) scale(1) rotate(0deg)" class="" d="M0 0"/><path fill="none" fill-opacity="0.65" stroke="#000" stroke-linecap="round" stroke-linejoin="round" stroke-width="4.5px" style="transform: translate(490px, 950px) scale(1) rotate(0deg)" class="" d="M0 0"/><path fill="none" fill-opacity="0.65" stroke="#000" stroke-linecap="round" stroke-linejoin="round" stroke-width="4.5px" style="transform: translate(555px, 950px) scale(1) rotate(0deg)" class="" d="M4 15C6 1 31.5-.3 31.5 15 31.5 30.7 4 53 4 60c0-3 26 0 30.5 0"/><path fill="none" fill-opacity="0.65" stroke="#000" stroke-linecap="round" stroke-linejoin="round" stroke-width="4.5px" style="transform: translate(612px, 950px) scale(1) rotate(0deg)" class="" d="M4 59V4.6C41.8.5 38.6 37.5 4 34"/><path fill="none" fill-opacity="0.65" stroke="#000" stroke-linecap="round" stroke-linejoin="round" stroke-width="4.5px" style="transform: translate(662px, 950px) scale(1) rotate(0deg)" class="" d="M4 57.5V2l25 55.5L52.5 2v55.5"/></g><path fill="none" fill-opacity="0.65" stroke="#000" stroke-linecap="round" stroke-linejoin="round" stroke-width="5.625px" style="transform: translate(1000px, 1000px) scale(0.8) rotate(180deg)" class="" d="M180.5 30.5L6.5 30.5M40 3.50003L6.5 30.5 40 57.5"/><g><path fill="none" fill-opacity="0.65" stroke="#000" stroke-linecap="round" stroke-linejoin="round" stroke-width="4.5px" style="transform: translate(1120px, 947px) scale(1) rotate(0deg)" class="" d="M35 65V11L7 50h38"/><path fill="none" fill-opacity="0.65" stroke="#000" stroke-linecap="round" stroke-linejoin="round" stroke-width="4.5px" style="transform: translate(1183px, 950px) scale(1) rotate(0deg)" class="" d="M4 59V4.6C41.8.5 38.6 37.5 4 34"/><path fill="none" fill-opacity="0.65" stroke="#000" stroke-linecap="round" stroke-linejoin="round" stroke-width="4.5px" style="transform: translate(1233px, 950px) scale(1) rotate(0deg)" class="" d="M4 57.5V2l25 55.5L52.5 2v55.5"/></g><g><path fill="none" fill-opacity="0.65" stroke="#000" stroke-linecap="round" stroke-linejoin="round" stroke-width="4.5px" style="transform: translate(220px, 1050px) scale(1) rotate(0deg)" class="" d="M37 14.1C31.5.6 4 .6 4 14.1s16 14 16 14c14.8 4 17 5 17 17s-33 14.5-33 0"/><path fill="none" fill-opacity="0.65" stroke="#000" stroke-linecap="round" stroke-linejoin="round" stroke-width="4.5px" style="transform: translate(280px, 1050px) scale(1) rotate(0deg)" class="" d="m4 57 6.3-18m35.2 18L39 39m0 0L26.5 4h-4L10.3 39M39 39H10.3"/><path fill="none" fill-opacity="0.65" stroke="#000" stroke-linecap="round" stroke-linejoin="round" stroke-width="4.5px" style="transform: translate(345px, 1050px) scale(1) rotate(0deg)" class="" d="M0 4h20.8m20.7 0H20.7m0 0v55"/><path fill="none" fill-opacity="0.65" stroke="#000" stroke-linecap="round" stroke-linejoin="round" stroke-width="4.5px" style="transform: translate(410px, 1050px) scale(1) rotate(0deg)" class="" d="M0 0"/><path fill="none" fill-opacity="0.65" stroke="#000" stroke-linecap="round" stroke-linejoin="round" stroke-width="4.5px" style="transform: translate(475px, 1050px) scale(1) rotate(0deg)" class="" d="M0 0"/><path fill="none" fill-opacity="0.65" stroke="#000" stroke-linecap="round" stroke-linejoin="round" stroke-width="4.5px" style="transform: translate(540px, 1050px) scale(1) rotate(0deg)" class="" d="m2 15 17-9v52.5"/><path fill="none" fill-opacity="0.65" stroke="#000" stroke-linecap="round" stroke-linejoin="round" stroke-width="4.5px" style="transform: translate(590px, 1050px) scale(1) rotate(0deg)" class="" d="M4 15C6 1 31.5-.3 31.5 15 31.5 30.7 4 53 4 60c0-3 26 0 30.5 0"/><path fill="none" fill-opacity="0.65" stroke="#000" stroke-linecap="round" stroke-linejoin="round" stroke-width="4.5px" style="transform: translate(647px, 1050px) scale(1) rotate(0deg)" class="" d="M4 59V4.6C41.8.5 38.6 37.5 4 34"/><path fill="none" fill-opacity="0.65" stroke="#000" stroke-linecap="round" stroke-linejoin="round" stroke-width="4.5px" style="transform: translate(697px, 1050px) scale(1) rotate(0deg)" class="" d="M4 57.5V2l25 55.5L52.5 2v55.5"/></g><path fill="none" fill-opacity="0.65" stroke="#000" stroke-linecap="round" stroke-linejoin="round" stroke-width="5.625px" style="transform: translate(1000px, 1100px) scale(0.8) rotate(180deg)" class="" d="M180.5 30.5L6.5 30.5M40 3.50003L6.5 30.5 40 57.5"/><g><path fill="none" fill-opacity="0.65" stroke="#000" stroke-linecap="round" stroke-linejoin="round" stroke-width="4.5px" style="transform: translate(1120px, 1050px) scale(1) rotate(0deg)" class="" d="M35.9 13.7c-9-18-34.2-10.9-31.7 20.1m0 0c.2 22.8 24.5 28.3 31.7 10.4C43 26.3 13.2 16.8 4.2 33.8Z"/><path fill="none" fill-opacity="0.65" stroke="#000" stroke-linecap="round" stroke-linejoin="round" stroke-width="4.5px" style="transform: translate(1180px, 1050px) scale(1) rotate(0deg)" class="" d="M4 59V4.6C41.8.5 38.6 37.5 4 34"/><path fill="none" fill-opacity="0.65" stroke="#000" stroke-linecap="round" stroke-linejoin="round" stroke-width="4.5px" style="transform: translate(1230px, 1050px) scale(1) rotate(0deg)" class="" d="M4 57.5V2l25 55.5L52.5 2v55.5"/></g><g><path fill="none" fill-opacity="0.65" stroke="#000" stroke-linecap="round" stroke-linejoin="round" stroke-width="4.5px" style="transform: translate(220px, 1150px) scale(1) rotate(0deg)" class="" d="M37 14.1C31.5.6 4 .6 4 14.1s16 14 16 14c14.8 4 17 5 17 17s-33 14.5-33 0"/><path fill="none" fill-opacity="0.65" stroke="#000" stroke-linecap="round" stroke-linejoin="round" stroke-width="4.5px" style="transform: translate(280px, 1152px) scale(1) rotate(0deg)" class="" d="M4 0v40.5c0 21 38.5 20 38.5 0V0"/><path fill="none" fill-opacity="0.65" stroke="#000" stroke-linecap="round" stroke-linejoin="round" stroke-width="4.5px" style="transform: translate(350px, 1145px) scale(1) rotate(0deg)" class="" d="M4 67.5V12l39 55.5V12"/><path fill="none" fill-opacity="0.65" stroke="#000" stroke-linecap="round" stroke-linejoin="round" stroke-width="4.5px" style="transform: translate(415px, 1150px) scale(1) rotate(0deg)" class="" d="M0 0"/><path fill="none" fill-opacity="0.65" stroke="#000" stroke-linecap="round" stroke-linejoin="round" stroke-width="4.5px" style="transform: translate(480px, 1150px) scale(1) rotate(0deg)" class="" d="M0 0"/><path fill="none" fill-opacity="0.65" stroke="#000" stroke-linecap="round" stroke-linejoin="round" stroke-width="4.5px" style="transform: translate(545px, 1150px) scale(1) rotate(0deg)" class="" d="m2 15 17-9v52.5"/><path fill="none" fill-opacity="0.65" stroke="#000" stroke-linecap="round" stroke-linejoin="round" stroke-width="4.5px" style="transform: translate(595px, 1152px) scale(1) rotate(0deg)" class="" d="M37 29c0 7.5-2.1 14.1-5.3 18.8C28.4 52.5 24.3 55 20 55c-4.3 0-8.4-2.5-11.7-7.2A33.5 33.5 0 0 1 3 29c0-7.5 2.1-14.1 5.3-18.8C11.6 5.5 15.7 3 20 3c4.3 0 8.4 2.5 11.7 7.2A33.5 33.5 0 0 1 37 29Z"/><path fill="none" fill-opacity="0.65" stroke="#000" stroke-linecap="round" stroke-linejoin="round" stroke-width="4.5px" style="transform: translate(655px, 1150px) scale(1) rotate(0deg)" class="" d="m4 57 6.3-18m35.2 18L39 39m0 0L26.5 4h-4L10.3 39M39 39H10.3"/><path fill="none" fill-opacity="0.65" stroke="#000" stroke-linecap="round" stroke-linejoin="round" stroke-width="4.5px" style="transform: translate(720px, 1150px) scale(1) rotate(0deg)" class="" d="M4 57.5V2l25 55.5L52.5 2v55.5"/></g><path fill="none" fill-opacity="0.65" stroke="#000" stroke-linecap="round" stroke-linejoin="round" stroke-width="5.625px" style="transform: translate(1000px, 1200px) scale(0.8) rotate(180deg)" class="" d="M180.5 30.5L6.5 30.5M40 3.50003L6.5 30.5 40 57.5"/><g><path fill="none" fill-opacity="0.65" stroke="#000" stroke-linecap="round" stroke-linejoin="round" stroke-width="4.5px" style="transform: translate(1120px, 1150px) scale(1) rotate(0deg)" class="" d="M4 15C6 1 31.5-.3 31.5 15 31.5 30.7 4 53 4 60c0-3 26 0 30.5 0"/><path fill="none" fill-opacity="0.65" stroke="#000" stroke-linecap="round" stroke-linejoin="round" stroke-width="4.5px" style="transform: translate(1177px, 1150px) scale(1) rotate(0deg)" class="" d="M4 59V4.6C41.8.5 38.6 37.5 4 34"/><path fill="none" fill-opacity="0.65" stroke="#000" stroke-linecap="round" stroke-linejoin="round" stroke-width="4.5px" style="transform: translate(1227px, 1150px) scale(1) rotate(0deg)" class="" d="M4 57.5V2l25 55.5L52.5 2v55.5"/></g><rect fill="none" fill-opacity="0.65" stroke="#000" stroke-linecap="round" stroke-linejoin="round" stroke-width="5px" x="1080" y="1450" width="1200" height="450"/><g><path fill="none" fill-opacity="0.65" stroke="#000" stroke-linecap="round" stroke-linejoin="round" stroke-width="4.5px" style="transform: translate(1150px, 1550px) scale(1) rotate(0deg)" class="" d="M35.5 4H4v25.5m0 29v-29m0 0h29"/><path fill="none" fill-opacity="0.65" stroke="#000" stroke-linecap="round" stroke-linejoin="round" stroke-width="4.5px" style="transform: translate(1205px, 1550px) scale(1) rotate(0deg)" class="" d="M4 58.7V4.3c30-3.2 34.1 19.2 17.5 27M4 33.9c7.2.7 13.1-.3 17.5-2.4m0 0 15 27.3"/><path fill="none" fill-opacity="0.65" stroke="#000" stroke-linecap="round" stroke-linejoin="round" stroke-width="4.5px" style="transform: translate(1260px, 1550px) scale(1) rotate(0deg)" class="" d="M4 0v58"/><path fill="none" fill-opacity="0.65" stroke="#000" stroke-linecap="round" stroke-linejoin="round" stroke-width="4.5px" style="transform: translate(1290px, 1550px) scale(1) rotate(0deg)" class="" d="M0 0"/><path fill="none" fill-opacity="0.65" stroke="#000" stroke-linecap="round" stroke-linejoin="round" stroke-width="4.5px" style="transform: translate(1355px, 1550px) scale(1) rotate(0deg)" class="" d="M0 0"/><path fill="none" fill-opacity="0.65" stroke="#000" stroke-linecap="round" stroke-linejoin="round" stroke-width="4.5px" style="transform: translate(1420px, 1550px) scale(1) rotate(0deg)" class="" d="M0 0"/><path fill="none" fill-opacity="0.65" stroke="#000" stroke-linecap="round" stroke-linejoin="round" stroke-width="4.5px" style="transform: translate(1485px, 1550px) scale(1) rotate(0deg)" class="" d="M4 15C6 1 31.5-.3 31.5 15 31.5 30.7 4 53 4 60c0-3 26 0 30.5 0"/><path fill="none" fill-opacity="0.65" stroke="#000" stroke-linecap="round" stroke-linejoin="round" stroke-width="4.5px" style="transform: translate(1542px, 1550px) scale(1) rotate(0deg)" class="" d="M4 59V4.6C41.8.5 38.6 37.5 4 34"/><path fill="none" fill-opacity="0.65" stroke="#000" stroke-linecap="round" stroke-linejoin="round" stroke-width="4.5px" style="transform: translate(1592px, 1550px) scale(1) rotate(0deg)" class="" d="M4 57.5V2l25 55.5L52.5 2v55.5"/></g><path fill="none" fill-opacity="0.65" stroke="#000" stroke-linecap="round" stroke-linejoin="round" stroke-width="5.625px" style="transform: translate(1930px, 1600px) scale(0.8) rotate(180deg)" class="" d="M180.5 30.5L6.5 30.5M40 3.50003L6.5 30.5 40 57.5"/><g><path fill="none" fill-opacity="0.65" stroke="#000" stroke-linecap="round" stroke-linejoin="round" stroke-width="4.5px" style="transform: translate(2050px, 1547px) scale(1) rotate(0deg)" class="" d="M35 65V11L7 50h38"/><path fill="none" fill-opacity="0.65" stroke="#000" stroke-linecap="round" stroke-linejoin="round" stroke-width="4.5px" style="transform: translate(2113px, 1550px) scale(1) rotate(0deg)" class="" d="M4 59V4.6C41.8.5 38.6 37.5 4 34"/><path fill="none" fill-opacity="0.65" stroke="#000" stroke-linecap="round" stroke-linejoin="round" stroke-width="4.5px" style="transform: translate(2163px, 1550px) scale(1) rotate(0deg)" class="" d="M4 57.5V2l25 55.5L52.5 2v55.5"/></g><g><path fill="none" fill-opacity="0.65" stroke="#000" stroke-linecap="round" stroke-linejoin="round" stroke-width="4.5px" style="transform: translate(1150px, 1650px) scale(1) rotate(0deg)" class="" d="M37 14.1C31.5.6 4 .6 4 14.1s16 14 16 14c14.8 4 17 5 17 17s-33 14.5-33 0"/><path fill="none" fill-opacity="0.65" stroke="#000" stroke-linecap="round" stroke-linejoin="round" stroke-width="4.5px" style="transform: translate(1210px, 1650px) scale(1) rotate(0deg)" class="" d="m4 57 6.3-18m35.2 18L39 39m0 0L26.5 4h-4L10.3 39M39 39H10.3"/><path fill="none" fill-opacity="0.65" stroke="#000" stroke-linecap="round" stroke-linejoin="round" stroke-width="4.5px" style="transform: translate(1275px, 1650px) scale(1) rotate(0deg)" class="" d="M0 4h20.8m20.7 0H20.7m0 0v55"/><path fill="none" fill-opacity="0.65" stroke="#000" stroke-linecap="round" stroke-linejoin="round" stroke-width="4.5px" style="transform: translate(1340px, 1650px) scale(1) rotate(0deg)" class="" d="M0 0"/><path fill="none" fill-opacity="0.65" stroke="#000" stroke-linecap="round" stroke-linejoin="round" stroke-width="4.5px" style="transform: translate(1405px, 1650px) scale(1) rotate(0deg)" class="" d="M0 0"/><path fill="none" fill-opacity="0.65" stroke="#000" stroke-linecap="round" stroke-linejoin="round" stroke-width="4.5px" style="transform: translate(1470px, 1650px) scale(1) rotate(0deg)" class="" d="m2 15 17-9v52.5"/><path fill="none" fill-opacity="0.65" stroke="#000" stroke-linecap="round" stroke-linejoin="round" stroke-width="4.5px" style="transform: translate(1520px, 1650px) scale(1) rotate(0deg)" class="" d="M4 15C6 1 31.5-.3 31.5 15 31.5 30.7 4 53 4 60c0-3 26 0 30.5 0"/><path fill="none" fill-opacity="0.65" stroke="#000" stroke-linecap="round" stroke-linejoin="round" stroke-width="4.5px" style="transform: translate(1577px, 1650px) scale(1) rotate(0deg)" class="" d="M4 59V4.6C41.8.5 38.6 37.5 4 34"/><path fill="none" fill-opacity="0.65" stroke="#000" stroke-linecap="round" stroke-linejoin="round" stroke-width="4.5px" style="transform: translate(1627px, 1650px) scale(1) rotate(0deg)" class="" d="M4 57.5V2l25 55.5L52.5 2v55.5"/></g><path fill="none" fill-opacity="0.65" stroke="#000" stroke-linecap="round" stroke-linejoin="round" stroke-width="5.625px" style="transform: translate(1930px, 1700px) scale(0.8) rotate(180deg)" class="" d="M180.5 30.5L6.5 30.5M40 3.50003L6.5 30.5 40 57.5"/><g><path fill="none" fill-opacity="0.65" stroke="#000" stroke-linecap="round" stroke-linejoin="round" stroke-width="4.5px" style="transform: translate(2050px, 1650px) scale(1) rotate(0deg)" class="" d="M35.9 13.7c-9-18-34.2-10.9-31.7 20.1m0 0c.2 22.8 24.5 28.3 31.7 10.4C43 26.3 13.2 16.8 4.2 33.8Z"/><path fill="none" fill-opacity="0.65" stroke="#000" stroke-linecap="round" stroke-linejoin="round" stroke-width="4.5px" style="transform: translate(2110px, 1650px) scale(1) rotate(0deg)" class="" d="M4 59V4.6C41.8.5 38.6 37.5 4 34"/><path fill="none" fill-opacity="0.65" stroke="#000" stroke-linecap="round" stroke-linejoin="round" stroke-width="4.5px" style="transform: translate(2160px, 1650px) scale(1) rotate(0deg)" class="" d="M4 57.5V2l25 55.5L52.5 2v55.5"/></g><g><path fill="none" fill-opacity="0.65" stroke="#000" stroke-linecap="round" stroke-linejoin="round" stroke-width="4.5px" style="transform: translate(1150px, 1750px) scale(1) rotate(0deg)" class="" d="M37 14.1C31.5.6 4 .6 4 14.1s16 14 16 14c14.8 4 17 5 17 17s-33 14.5-33 0"/><path fill="none" fill-opacity="0.65" stroke="#000" stroke-linecap="round" stroke-linejoin="round" stroke-width="4.5px" style="transform: translate(1210px, 1752px) scale(1) rotate(0deg)" class="" d="M4 0v40.5c0 21 38.5 20 38.5 0V0"/><path fill="none" fill-opacity="0.65" stroke="#000" stroke-linecap="round" stroke-linejoin="round" stroke-width="4.5px" style="transform: translate(1280px, 1745px) scale(1) rotate(0deg)" class="" d="M4 67.5V12l39 55.5V12"/><path fill="none" fill-opacity="0.65" stroke="#000" stroke-linecap="round" stroke-linejoin="round" stroke-width="4.5px" style="transform: translate(1345px, 1750px) scale(1) rotate(0deg)" class="" d="M0 0"/><path fill="none" fill-opacity="0.65" stroke="#000" stroke-linecap="round" stroke-linejoin="round" stroke-width="4.5px" style="transform: translate(1410px, 1750px) scale(1) rotate(0deg)" class="" d="M0 0"/><path fill="none" fill-opacity="0.65" stroke="#000" stroke-linecap="round" stroke-linejoin="round" stroke-width="4.5px" style="transform: translate(1475px, 1750px) scale(1) rotate(0deg)" class="" d="m2 15 17-9v52.5"/><path fill="none" fill-opacity="0.65" stroke="#000" stroke-linecap="round" stroke-linejoin="round" stroke-width="4.5px" style="transform: translate(1525px, 1752px) scale(1) rotate(0deg)" class="" d="M37 29c0 7.5-2.1 14.1-5.3 18.8C28.4 52.5 24.3 55 20 55c-4.3 0-8.4-2.5-11.7-7.2A33.5 33.5 0 0 1 3 29c0-7.5 2.1-14.1 5.3-18.8C11.6 5.5 15.7 3 20 3c4.3 0 8.4 2.5 11.7 7.2A33.5 33.5 0 0 1 37 29Z"/><path fill="none" fill-opacity="0.65" stroke="#000" stroke-linecap="round" stroke-linejoin="round" stroke-width="4.5px" style="transform: translate(1585px, 1750px) scale(1) rotate(0deg)" class="" d="m4 57 6.3-18m35.2 18L39 39m0 0L26.5 4h-4L10.3 39M39 39H10.3"/><path fill="none" fill-opacity="0.65" stroke="#000" stroke-linecap="round" stroke-linejoin="round" stroke-width="4.5px" style="transform: translate(1650px, 1750px) scale(1) rotate(0deg)" class="" d="M4 57.5V2l25 55.5L52.5 2v55.5"/></g><path fill="none" fill-opacity="0.65" stroke="#000" stroke-linecap="round" stroke-linejoin="round" stroke-width="5.625px" style="transform: translate(1930px, 1800px) scale(0.8) rotate(180deg)" class="" d="M180.5 30.5L6.5 30.5M40 3.50003L6.5 30.5 40 57.5"/><g><path fill="none" fill-opacity="0.65" stroke="#000" stroke-linecap="round" stroke-linejoin="round" stroke-width="4.5px" style="transform: translate(2050px, 1750px) scale(1) rotate(0deg)" class="" d="M4 15C6 1 31.5-.3 31.5 15 31.5 30.7 4 53 4 60c0-3 26 0 30.5 0"/><path fill="none" fill-opacity="0.65" stroke="#000" stroke-linecap="round" stroke-linejoin="round" stroke-width="4.5px" style="transform: translate(2107px, 1750px) scale(1) rotate(0deg)" class="" d="M4 59V4.6C41.8.5 38.6 37.5 4 34"/><path fill="none" fill-opacity="0.65" stroke="#000" stroke-linecap="round" stroke-linejoin="round" stroke-width="4.5px" style="transform: translate(2157px, 1750px) scale(1) rotate(0deg)" class="" d="M4 57.5V2l25 55.5L52.5 2v55.5"/></g><rect fill="none" fill-opacity="0.65" stroke="#000" stroke-linecap="round" stroke-linejoin="round" stroke-width="5px" x="150" y="2050" width="1200" height="450"/><g><path fill="none" fill-opacity="0.65" stroke="#000" stroke-linecap="round" stroke-linejoin="round" stroke-width="4.5px" style="transform: translate(220px, 2150px) scale(1) rotate(0deg)" class="" d="M35.5 4H4v25.5m0 29v-29m0 0h29"/><path fill="none" fill-opacity="0.65" stroke="#000" stroke-linecap="round" stroke-linejoin="round" stroke-width="4.5px" style="transform: translate(275px, 2150px) scale(1) rotate(0deg)" class="" d="M4 58.7V4.3c30-3.2 34.1 19.2 17.5 27M4 33.9c7.2.7 13.1-.3 17.5-2.4m0 0 15 27.3"/><path fill="none" fill-opacity="0.65" stroke="#000" stroke-linecap="round" stroke-linejoin="round" stroke-width="4.5px" style="transform: translate(330px, 2150px) scale(1) rotate(0deg)" class="" d="M4 0v58"/><path fill="none" fill-opacity="0.65" stroke="#000" stroke-linecap="round" stroke-linejoin="round" stroke-width="4.5px" style="transform: translate(360px, 2150px) scale(1) rotate(0deg)" class="" d="M0 0"/><path fill="none" fill-opacity="0.65" stroke="#000" stroke-linecap="round" stroke-linejoin="round" stroke-width="4.5px" style="transform: translate(425px, 2150px) scale(1) rotate(0deg)" class="" d="M0 0"/><path fill="none" fill-opacity="0.65" stroke="#000" stroke-linecap="round" stroke-linejoin="round" stroke-width="4.5px" style="transform: translate(490px, 2150px) scale(1) rotate(0deg)" class="" d="M0 0"/><path fill="none" fill-opacity="0.65" stroke="#000" stroke-linecap="round" stroke-linejoin="round" stroke-width="4.5px" style="transform: translate(555px, 2150px) scale(1) rotate(0deg)" class="" d="M4 15C6 1 31.5-.3 31.5 15 31.5 30.7 4 53 4 60c0-3 26 0 30.5 0"/><path fill="none" fill-opacity="0.65" stroke="#000" stroke-linecap="round" stroke-linejoin="round" stroke-width="4.5px" style="transform: translate(612px, 2150px) scale(1) rotate(0deg)" class="" d="M4 59V4.6C41.8.5 38.6 37.5 4 34"/><path fill="none" fill-opacity="0.65" stroke="#000" stroke-linecap="round" stroke-linejoin="round" stroke-width="4.5px" style="transform: translate(662px, 2150px) scale(1) rotate(0deg)" class="" d="M4 57.5V2l25 55.5L52.5 2v55.5"/></g><path fill="none" fill-opacity="0.65" stroke="#000" stroke-linecap="round" stroke-linejoin="round" stroke-width="5.625px" style="transform: translate(1000px, 2200px) scale(0.8) rotate(180deg)" class="" d="M180.5 30.5L6.5 30.5M40 3.50003L6.5 30.5 40 57.5"/><g><path fill="none" fill-opacity="0.65" stroke="#000" stroke-linecap="round" stroke-linejoin="round" stroke-width="4.5px" style="transform: translate(1120px, 2147px) scale(1) rotate(0deg)" class="" d="M35 65V11L7 50h38"/><path fill="none" fill-opacity="0.65" stroke="#000" stroke-linecap="round" stroke-linejoin="round" stroke-width="4.5px" style="transform: translate(1183px, 2150px) scale(1) rotate(0deg)" class="" d="M4 59V4.6C41.8.5 38.6 37.5 4 34"/><path fill="none" fill-opacity="0.65" stroke="#000" stroke-linecap="round" stroke-linejoin="round" stroke-width="4.5px" style="transform: translate(1233px, 2150px) scale(1) rotate(0deg)" class="" d="M4 57.5V2l25 55.5L52.5 2v55.5"/></g><g><path fill="none" fill-opacity="0.65" stroke="#000" stroke-linecap="round" stroke-linejoin="round" stroke-width="4.5px" style="transform: translate(220px, 2250px) scale(1) rotate(0deg)" class="" d="M37 14.1C31.5.6 4 .6 4 14.1s16 14 16 14c14.8 4 17 5 17 17s-33 14.5-33 0"/><path fill="none" fill-opacity="0.65" stroke="#000" stroke-linecap="round" stroke-linejoin="round" stroke-width="4.5px" style="transform: translate(280px, 2250px) scale(1) rotate(0deg)" class="" d="m4 57 6.3-18m35.2 18L39 39m0 0L26.5 4h-4L10.3 39M39 39H10.3"/><path fill="none" fill-opacity="0.65" stroke="#000" stroke-linecap="round" stroke-linejoin="round" stroke-width="4.5px" style="transform: translate(345px, 2250px) scale(1) rotate(0deg)" class="" d="M0 4h20.8m20.7 0H20.7m0 0v55"/><path fill="none" fill-opacity="0.65" stroke="#000" stroke-linecap="round" stroke-linejoin="round" stroke-width="4.5px" style="transform: translate(410px, 2250px) scale(1) rotate(0deg)" class="" d="M0 0"/><path fill="none" fill-opacity="0.65" stroke="#000" stroke-linecap="round" stroke-linejoin="round" stroke-width="4.5px" style="transform: translate(475px, 2250px) scale(1) rotate(0deg)" class="" d="M0 0"/><path fill="none" fill-opacity="0.65" stroke="#000" stroke-linecap="round" stroke-linejoin="round" stroke-width="4.5px" style="transform: translate(540px, 2250px) scale(1) rotate(0deg)" class="" d="m2 15 17-9v52.5"/><path fill="none" fill-opacity="0.65" stroke="#000" stroke-linecap="round" stroke-linejoin="round" stroke-width="4.5px" style="transform: translate(590px, 2250px) scale(1) rotate(0deg)" class="" d="M4 15C6 1 31.5-.3 31.5 15 31.5 30.7 4 53 4 60c0-3 26 0 30.5 0"/><path fill="none" fill-opacity="0.65" stroke="#000" stroke-linecap="round" stroke-linejoin="round" stroke-width="4.5px" style="transform: translate(647px, 2250px) scale(1) rotate(0deg)" class="" d="M4 59V4.6C41.8.5 38.6 37.5 4 34"/><path fill="none" fill-opacity="0.65" stroke="#000" stroke-linecap="round" stroke-linejoin="round" stroke-width="4.5px" style="transform: translate(697px, 2250px) scale(1) rotate(0deg)" class="" d="M4 57.5V2l25 55.5L52.5 2v55.5"/></g><path fill="none" fill-opacity="0.65" stroke="#000" stroke-linecap="round" stroke-linejoin="round" stroke-width="5.625px" style="transform: translate(1000px, 2300px) scale(0.8) rotate(180deg)" class="" d="M180.5 30.5L6.5 30.5M40 3.50003L6.5 30.5 40 57.5"/><g><path fill="none" fill-opacity="0.65" stroke="#000" stroke-linecap="round" stroke-linejoin="round" stroke-width="4.5px" style="transform: translate(1120px, 2250px) scale(1) rotate(0deg)" class="" d="M35.9 13.7c-9-18-34.2-10.9-31.7 20.1m0 0c.2 22.8 24.5 28.3 31.7 10.4C43 26.3 13.2 16.8 4.2 33.8Z"/><path fill="none" fill-opacity="0.65" stroke="#000" stroke-linecap="round" stroke-linejoin="round" stroke-width="4.5px" style="transform: translate(1180px, 2250px) scale(1) rotate(0deg)" class="" d="M4 59V4.6C41.8.5 38.6 37.5 4 34"/><path fill="none" fill-opacity="0.65" stroke="#000" stroke-linecap="round" stroke-linejoin="round" stroke-width="4.5px" style="transform: translate(1230px, 2250px) scale(1) rotate(0deg)" class="" d="M4 57.5V2l25 55.5L52.5 2v55.5"/></g><g><path fill="none" fill-opacity="0.65" stroke="#000" stroke-linecap="round" stroke-linejoin="round" stroke-width="4.5px" style="transform: translate(220px, 2350px) scale(1) rotate(0deg)" class="" d="M37 14.1C31.5.6 4 .6 4 14.1s16 14 16 14c14.8 4 17 5 17 17s-33 14.5-33 0"/><path fill="none" fill-opacity="0.65" stroke="#000" stroke-linecap="round" stroke-linejoin="round" stroke-width="4.5px" style="transform: translate(280px, 2352px) scale(1) rotate(0deg)" class="" d="M4 0v40.5c0 21 38.5 20 38.5 0V0"/><path fill="none" fill-opacity="0.65" stroke="#000" stroke-linecap="round" stroke-linejoin="round" stroke-width="4.5px" style="transform: translate(350px, 2345px) scale(1) rotate(0deg)" class="" d="M4 67.5V12l39 55.5V12"/><path fill="none" fill-opacity="0.65" stroke="#000" stroke-linecap="round" stroke-linejoin="round" stroke-width="4.5px" style="transform: translate(415px, 2350px) scale(1) rotate(0deg)" class="" d="M0 0"/><path fill="none" fill-opacity="0.65" stroke="#000" stroke-linecap="round" stroke-linejoin="round" stroke-width="4.5px" style="transform: translate(480px, 2350px) scale(1) rotate(0deg)" class="" d="M0 0"/><path fill="none" fill-opacity="0.65" stroke="#000" stroke-linecap="round" stroke-linejoin="round" stroke-width="4.5px" style="transform: translate(545px, 2350px) scale(1) rotate(0deg)" class="" d="m2 15 17-9v52.5"/><path fill="none" fill-opacity="0.65" stroke="#000" stroke-linecap="round" stroke-linejoin="round" stroke-width="4.5px" style="transform: translate(595px, 2352px) scale(1) rotate(0deg)" class="" d="M37 29c0 7.5-2.1 14.1-5.3 18.8C28.4 52.5 24.3 55 20 55c-4.3 0-8.4-2.5-11.7-7.2A33.5 33.5 0 0 1 3 29c0-7.5 2.1-14.1 5.3-18.8C11.6 5.5 15.7 3 20 3c4.3 0 8.4 2.5 11.7 7.2A33.5 33.5 0 0 1 37 29Z"/><path fill="none" fill-opacity="0.65" stroke="#000" stroke-linecap="round" stroke-linejoin="round" stroke-width="4.5px" style="transform: translate(655px, 2350px) scale(1) rotate(0deg)" class="" d="m4 57 6.3-18m35.2 18L39 39m0 0L26.5 4h-4L10.3 39M39 39H10.3"/><path fill="none" fill-opacity="0.65" stroke="#000" stroke-linecap="round" stroke-linejoin="round" stroke-width="4.5px" style="transform: translate(720px, 2350px) scale(1) rotate(0deg)" class="" d="M4 57.5V2l25 55.5L52.5 2v55.5"/></g><path fill="none" fill-opacity="0.65" stroke="#000" stroke-linecap="round" stroke-linejoin="round" stroke-width="5.625px" style="transform: translate(1000px, 2400px) scale(0.8) rotate(180deg)" class="" d="M180.5 30.5L6.5 30.5M40 3.50003L6.5 30.5 40 57.5"/><g><path fill="none" fill-opacity="0.65" stroke="#000" stroke-linecap="round" stroke-linejoin="round" stroke-width="4.5px" style="transform: translate(1120px, 2350px) scale(1) rotate(0deg)" class="" d="M4 15C6 1 31.5-.3 31.5 15 31.5 30.7 4 53 4 60c0-3 26 0 30.5 0"/><path fill="none" fill-opacity="0.65" stroke="#000" stroke-linecap="round" stroke-linejoin="round" stroke-width="4.5px" style="transform: translate(1177px, 2350px) scale(1) rotate(0deg)" class="" d="M4 59V4.6C41.8.5 38.6 37.5 4 34"/><path fill="none" fill-opacity="0.65" stroke="#000" stroke-linecap="round" stroke-linejoin="round" stroke-width="4.5px" style="transform: translate(1227px, 2350px) scale(1) rotate(0deg)" class="" d="M4 57.5V2l25 55.5L52.5 2v55.5"/></g><rect fill="none" fill-opacity="0.65" stroke="#000" stroke-linecap="round" stroke-linejoin="round" stroke-width="5px" x="1080" y="2650" width="1200" height="450"/><g><path fill="none" fill-opacity="0.65" stroke="#000" stroke-linecap="round" stroke-linejoin="round" stroke-width="4.5px" style="transform: translate(1150px, 2750px) scale(1) rotate(0deg)" class="" d="M35.5 4H4v25.5m0 29v-29m0 0h29"/><path fill="none" fill-opacity="0.65" stroke="#000" stroke-linecap="round" stroke-linejoin="round" stroke-width="4.5px" style="transform: translate(1205px, 2750px) scale(1) rotate(0deg)" class="" d="M4 58.7V4.3c30-3.2 34.1 19.2 17.5 27M4 33.9c7.2.7 13.1-.3 17.5-2.4m0 0 15 27.3"/><path fill="none" fill-opacity="0.65" stroke="#000" stroke-linecap="round" stroke-linejoin="round" stroke-width="4.5px" style="transform: translate(1260px, 2750px) scale(1) rotate(0deg)" class="" d="M4 0v58"/><path fill="none" fill-opacity="0.65" stroke="#000" stroke-linecap="round" stroke-linejoin="round" stroke-width="4.5px" style="transform: translate(1290px, 2750px) scale(1) rotate(0deg)" class="" d="M0 0"/><path fill="none" fill-opacity="0.65" stroke="#000" stroke-linecap="round" stroke-linejoin="round" stroke-width="4.5px" style="transform: translate(1355px, 2750px) scale(1) rotate(0deg)" class="" d="M0 0"/><path fill="none" fill-opacity="0.65" stroke="#000" stroke-linecap="round" stroke-linejoin="round" stroke-width="4.5px" style="transform: translate(1420px, 2750px) scale(1) rotate(0deg)" class="" d="M0 0"/><path fill="none" fill-opacity="0.65" stroke="#000" stroke-linecap="round" stroke-linejoin="round" stroke-width="4.5px" style="transform: translate(1485px, 2750px) scale(1) rotate(0deg)" class="" d="M4 15C6 1 31.5-.3 31.5 15 31.5 30.7 4 53 4 60c0-3 26 0 30.5 0"/><path fill="none" fill-opacity="0.65" stroke="#000" stroke-linecap="round" stroke-linejoin="round" stroke-width="4.5px" style="transform: translate(1542px, 2750px) scale(1) rotate(0deg)" class="" d="M4 59V4.6C41.8.5 38.6 37.5 4 34"/><path fill="none" fill-opacity="0.65" stroke="#000" stroke-linecap="round" stroke-linejoin="round" stroke-width="4.5px" style="transform: translate(1592px, 2750px) scale(1) rotate(0deg)" class="" d="M4 57.5V2l25 55.5L52.5 2v55.5"/></g><path fill="none" fill-opacity="0.65" stroke="#000" stroke-linecap="round" stroke-linejoin="round" stroke-width="5.625px" style="transform: translate(1930px, 2800px) scale(0.8) rotate(180deg)" class="" d="M180.5 30.5L6.5 30.5M40 3.50003L6.5 30.5 40 57.5"/><g><path fill="none" fill-opacity="0.65" stroke="#000" stroke-linecap="round" stroke-linejoin="round" stroke-width="4.5px" style="transform: translate(2050px, 2747px) scale(1) rotate(0deg)" class="" d="M35 65V11L7 50h38"/><path fill="none" fill-opacity="0.65" stroke="#000" stroke-linecap="round" stroke-linejoin="round" stroke-width="4.5px" style="transform: translate(2113px, 2750px) scale(1) rotate(0deg)" class="" d="M4 59V4.6C41.8.5 38.6 37.5 4 34"/><path fill="none" fill-opacity="0.65" stroke="#000" stroke-linecap="round" stroke-linejoin="round" stroke-width="4.5px" style="transform: translate(2163px, 2750px) scale(1) rotate(0deg)" class="" d="M4 57.5V2l25 55.5L52.5 2v55.5"/></g><g><path fill="none" fill-opacity="0.65" stroke="#000" stroke-linecap="round" stroke-linejoin="round" stroke-width="4.5px" style="transform: translate(1150px, 2850px) scale(1) rotate(0deg)" class="" d="M37 14.1C31.5.6 4 .6 4 14.1s16 14 16 14c14.8 4 17 5 17 17s-33 14.5-33 0"/><path fill="none" fill-opacity="0.65" stroke="#000" stroke-linecap="round" stroke-linejoin="round" stroke-width="4.5px" style="transform: translate(1210px, 2850px) scale(1) rotate(0deg)" class="" d="m4 57 6.3-18m35.2 18L39 39m0 0L26.5 4h-4L10.3 39M39 39H10.3"/><path fill="none" fill-opacity="0.65" stroke="#000" stroke-linecap="round" stroke-linejoin="round" stroke-width="4.5px" style="transform: translate(1275px, 2850px) scale(1) rotate(0deg)" class="" d="M0 4h20.8m20.7 0H20.7m0 0v55"/><path fill="none" fill-opacity="0.65" stroke="#000" stroke-linecap="round" stroke-linejoin="round" stroke-width="4.5px" style="transform: translate(1340px, 2850px) scale(1) rotate(0deg)" class="" d="M0 0"/><path fill="none" fill-opacity="0.65" stroke="#000" stroke-linecap="round" stroke-linejoin="round" stroke-width="4.5px" style="transform: translate(1405px, 2850px) scale(1) rotate(0deg)" class="" d="M0 0"/><path fill="none" fill-opacity="0.65" stroke="#000" stroke-linecap="round" stroke-linejoin="round" stroke-width="4.5px" style="transform: translate(1470px, 2850px) scale(1) rotate(0deg)" class="" d="m2 15 17-9v52.5"/><path fill="none" fill-opacity="0.65" stroke="#000" stroke-linecap="round" stroke-linejoin="round" stroke-width="4.5px" style="transform: translate(1520px, 2850px) scale(1) rotate(0deg)" class="" d="M4 15C6 1 31.5-.3 31.5 15 31.5 30.7 4 53 4 60c0-3 26 0 30.5 0"/><path fill="none" fill-opacity="0.65" stroke="#000" stroke-linecap="round" stroke-linejoin="round" stroke-width="4.5px" style="transform: translate(1577px, 2850px) scale(1) rotate(0deg)" class="" d="M4 59V4.6C41.8.5 38.6 37.5 4 34"/><path fill="none" fill-opacity="0.65" stroke="#000" stroke-linecap="round" stroke-linejoin="round" stroke-width="4.5px" style="transform: translate(1627px, 2850px) scale(1) rotate(0deg)" class="" d="M4 57.5V2l25 55.5L52.5 2v55.5"/></g><path fill="none" fill-opacity="0.65" stroke="#000" stroke-linecap="round" stroke-linejoin="round" stroke-width="5.625px" style="transform: translate(1930px, 2900px) scale(0.8) rotate(180deg)" class="" d="M180.5 30.5L6.5 30.5M40 3.50003L6.5 30.5 40 57.5"/><g><path fill="none" fill-opacity="0.65" stroke="#000" stroke-linecap="round" stroke-linejoin="round" stroke-width="4.5px" style="transform: translate(2050px, 2850px) scale(1) rotate(0deg)" class="" d="M35.9 13.7c-9-18-34.2-10.9-31.7 20.1m0 0c.2 22.8 24.5 28.3 31.7 10.4C43 26.3 13.2 16.8 4.2 33.8Z"/><path fill="none" fill-opacity="0.65" stroke="#000" stroke-linecap="round" stroke-linejoin="round" stroke-width="4.5px" style="transform: translate(2110px, 2850px) scale(1) rotate(0deg)" class="" d="M4 59V4.6C41.8.5 38.6 37.5 4 34"/><path fill="none" fill-opacity="0.65" stroke="#000" stroke-linecap="round" stroke-linejoin="round" stroke-width="4.5px" style="transform: translate(2160px, 2850px) scale(1) rotate(0deg)" class="" d="M4 57.5V2l25 55.5L52.5 2v55.5"/></g><g><path fill="none" fill-opacity="0.65" stroke="#000" stroke-linecap="round" stroke-linejoin="round" stroke-width="4.5px" style="transform: translate(1150px, 2950px) scale(1) rotate(0deg)" class="" d="M37 14.1C31.5.6 4 .6 4 14.1s16 14 16 14c14.8 4 17 5 17 17s-33 14.5-33 0"/><path fill="none" fill-opacity="0.65" stroke="#000" stroke-linecap="round" stroke-linejoin="round" stroke-width="4.5px" style="transform: translate(1210px, 2952px) scale(1) rotate(0deg)" class="" d="M4 0v40.5c0 21 38.5 20 38.5 0V0"/><path fill="none" fill-opacity="0.65" stroke="#000" stroke-linecap="round" stroke-linejoin="round" stroke-width="4.5px" style="transform: translate(1280px, 2945px) scale(1) rotate(0deg)" class="" d="M4 67.5V12l39 55.5V12"/><path fill="none" fill-opacity="0.65" stroke="#000" stroke-linecap="round" stroke-linejoin="round" stroke-width="4.5px" style="transform: translate(1345px, 2950px) scale(1) rotate(0deg)" class="" d="M0 0"/><path fill="none" fill-opacity="0.65" stroke="#000" stroke-linecap="round" stroke-linejoin="round" stroke-width="4.5px" style="transform: translate(1410px, 2950px) scale(1) rotate(0deg)" class="" d="M0 0"/><path fill="none" fill-opacity="0.65" stroke="#000" stroke-linecap="round" stroke-linejoin="round" stroke-width="4.5px" style="transform: translate(1475px, 2950px) scale(1) rotate(0deg)" class="" d="m2 15 17-9v52.5"/><path fill="none" fill-opacity="0.65" stroke="#000" stroke-linecap="round" stroke-linejoin="round" stroke-width="4.5px" style="transform: translate(1525px, 2952px) scale(1) rotate(0deg)" class="" d="M37 29c0 7.5-2.1 14.1-5.3 18.8C28.4 52.5 24.3 55 20 55c-4.3 0-8.4-2.5-11.7-7.2A33.5 33.5 0 0 1 3 29c0-7.5 2.1-14.1 5.3-18.8C11.6 5.5 15.7 3 20 3c4.3 0 8.4 2.5 11.7 7.2A33.5 33.5 0 0 1 37 29Z"/><path fill="none" fill-opacity="0.65" stroke="#000" stroke-linecap="round" stroke-linejoin="round" stroke-width="4.5px" style="transform: translate(1585px, 2950px) scale(1) rotate(0deg)" class="" d="m4 57 6.3-18m35.2 18L39 39m0 0L26.5 4h-4L10.3 39M39 39H10.3"/><path fill="none" fill-opacity="0.65" stroke="#000" stroke-linecap="round" stroke-linejoin="round" stroke-width="4.5px" style="transform: translate(1650px, 2950px) scale(1) rotate(0deg)" class="" d="M4 57.5V2l25 55.5L52.5 2v55.5"/></g><path fill="none" fill-opacity="0.65" stroke="#000" stroke-linecap="round" stroke-linejoin="round" stroke-width="5.625px" style="transform: translate(1930px, 3000px) scale(0.8) rotate(180deg)" class="" d="M180.5 30.5L6.5 30.5M40 3.50003L6.5 30.5 40 57.5"/><g><path fill="none" fill-opacity="0.65" stroke="#000" stroke-linecap="round" stroke-linejoin="round" stroke-width="4.5px" style="transform: translate(2050px, 2950px) scale(1) rotate(0deg)" class="" d="M4 15C6 1 31.5-.3 31.5 15 31.5 30.7 4 53 4 60c0-3 26 0 30.5 0"/><path fill="none" fill-opacity="0.65" stroke="#000" stroke-linecap="round" stroke-linejoin="round" stroke-width="4.5px" style="transform: translate(2107px, 2950px) scale(1) rotate(0deg)" class="" d="M4 59V4.6C41.8.5 38.6 37.5 4 34"/><path fill="none" fill-opacity="0.65" stroke="#000" stroke-linecap="round" stroke-linejoin="round" stroke-width="4.5px" style="transform: translate(2157px, 2950px) scale(1) rotate(0deg)" class="" d="M4 57.5V2l25 55.5L52.5 2v55.5"/></g></g></svg>