<?xml version="1.0" standalone="no"?>
<svg xmlns="http://www.w3.org/2000/svg" id="svg" width="95.9vw" style="transform: rotate(0.18deg) translate(0px, 0.16vw); cursor: pointer; background: rgb(255, 255, 255);" viewBox="0 0 2550 3300"><path d="M 0 0 M 2550 3300"/><g id="black-3"><g><path fill="none" fill-opacity="0.65" stroke="#000" stroke-linecap="round" stroke-linejoin="round" stroke-width="0.75px" style="transform: translate(250px, 250px) scale(6) rotate(0deg)" class="" d="M4 58.7V4.3c30-3.2 34.1 19.2 17.5 27M4 33.9c7.2.7 13.1-.3 17.5-2.4m0 0 15 27.3"/><path fill="none" fill-opacity="0.65" stroke="#000" stroke-linecap="round" stroke-linejoin="round" stroke-width="0.75px" style="transform: translate(580px, 250px) scale(6) rotate(0deg)" class="" d="M35 4H4v25.8m31 25.7H4V29.7m0 0h29.5"/><path fill="none" fill-opacity="0.65" stroke="#000" stroke-linecap="round" stroke-linejoin="round" stroke-width="0.75px" style="transform: translate(940px, 250px) scale(6) rotate(0deg)" class="" d="M0 4h20.8m20.7 0H20.7m0 0v55"/><path fill="none" fill-opacity="0.65" stroke="#000" stroke-linecap="round" stroke-linejoin="round" stroke-width="0.75px" style="transform: translate(1330px, 252px) scale(6) rotate(0deg)" class="" d="M4 0v40.5c0 21 38.5 20 38.5 0V0"/><path fill="none" fill-opacity="0.65" stroke="#000" stroke-linecap="round" stroke-linejoin="round" stroke-width="0.75px" style="transform: translate(1750px, 250px) scale(6) rotate(0deg)" class="" d="M4 58.7V4.3c30-3.2 34.1 19.2 17.5 27M4 33.9c7.2.7 13.1-.3 17.5-2.4m0 0 15 27.3"/><path fill="none" fill-opacity="0.65" stroke="#000" stroke-linecap="round" stroke-linejoin="round" stroke-width="0.75px" style="transform: translate(2080px, 245px) scale(6) rotate(0deg)" class="" d="M4 67.5V12l39 55.5V12"/></g><g><path fill="none" fill-opacity="0.65" stroke="#000" stroke-linecap="round" stroke-linejoin="round" stroke-width="0.75px" style="transform: translate(350px, 900px) scale(6) rotate(0deg)" class="" d="M4 59V4.6C41.8.5 38.6 37.5 4 34"/><path fill="none" fill-opacity="0.65" stroke="#000" stroke-linecap="round" stroke-linejoin="round" stroke-width="0.75px" style="transform: translate(650px, 900px) scale(6) rotate(0deg)" class="" d="M35 4H4v25.8m31 25.7H4V29.7m0 0h29.5"/><path fill="none" fill-opacity="0.65" stroke="#000" stroke-linecap="round" stroke-linejoin="round" stroke-width="0.75px" style="transform: translate(1010px, 895px) scale(6) rotate(0deg)" class="" d="M4 67.5V12l39 55.5V12"/><path fill="none" fill-opacity="0.65" stroke="#000" stroke-linecap="round" stroke-linejoin="round" stroke-width="0.75px" style="transform: translate(1400px, 900px) scale(6) rotate(0deg)" class="" d="M37 14.1C31.5.6 4 .6 4 14.1s16 14 16 14c14.8 4 17 5 17 17s-33 14.5-33 0"/></g><g><path fill="none" fill-opacity="0.65" stroke="#000" stroke-linecap="round" stroke-linejoin="round" stroke-width="0.75px" style="transform: translate(250px, 1550px) scale(6) rotate(0deg)" class="" d="m4 57 6.3-18m35.2 18L39 39m0 0L26.5 4h-4L10.3 39M39 39H10.3"/><path fill="none" fill-opacity="0.65" stroke="#000" stroke-linecap="round" stroke-linejoin="round" stroke-width="0.75px" style="transform: translate(640px, 1550px) scale(6) rotate(0deg)" class="" d="M35.5 4H4v25.5m0 29v-29m0 0h29"/><path fill="none" fill-opacity="0.65" stroke="#000" stroke-linecap="round" stroke-linejoin="round" stroke-width="0.75px" style="transform: translate(970px, 1550px) scale(6) rotate(0deg)" class="" d="M0 4h20.8m20.7 0H20.7m0 0v55"/><path fill="none" fill-opacity="0.65" stroke="#000" stroke-linecap="round" stroke-linejoin="round" stroke-width="0.75px" style="transform: translate(1360px, 1550px) scale(6) rotate(0deg)" class="" d="M35 4H4v25.8m31 25.7H4V29.7m0 0h29.5"/><path fill="none" fill-opacity="0.65" stroke="#000" stroke-linecap="round" stroke-linejoin="round" stroke-width="0.75px" style="transform: translate(1720px, 1550px) scale(6) rotate(0deg)" class="" d="M4 58.7V4.3c30-3.2 34.1 19.2 17.5 27M4 33.9c7.2.7 13.1-.3 17.5-2.4m0 0 15 27.3"/></g><g><path fill="none" fill-opacity="0.65" stroke="#000" stroke-linecap="round" stroke-linejoin="round" stroke-width="0.75px" style="transform: translate(550px, 2202px) scale(6) rotate(0deg)" class="" d="M4 0v40.5c0 21 38.5 20 38.5 0V0"/><path fill="none" fill-opacity="0.65" stroke="#000" stroke-linecap="round" stroke-linejoin="round" stroke-width="0.75px" style="transform: translate(970px, 2200px) scale(6) rotate(0deg)" class="" d="M37 14.1C31.5.6 4 .6 4 14.1s16 14 16 14c14.8 4 17 5 17 17s-33 14.5-33 0"/><path fill="none" fill-opacity="0.65" stroke="#000" stroke-linecap="round" stroke-linejoin="round" stroke-width="0.75px" style="transform: translate(1330px, 2200px) scale(6) rotate(0deg)" class="" d="M35 4H4v25.8m31 25.7H4V29.7m0 0h29.5"/></g></g></svg>