<?xml version="1.0" standalone="no"?>
<svg xmlns="http://www.w3.org/2000/svg" id="svg" width="95.9vw" style="transform: rotate(0.18deg) translate(0px, 0.16vw); cursor: pointer; background: rgb(255, 255, 255);" viewBox="0 0 2550 3300"><path d="M 0 0 M 2550 3300"/><g id="black-3"><g><path fill="none" fill-opacity="0.65" stroke="#000" stroke-linecap="round" stroke-linejoin="round" stroke-width="0.5px" style="transform: translate(420px, 245px) scale(9) rotate(0deg)" class="" d="m4 13 15.5 57.5L36 13l17.5 57.5L69 13"/><path fill="none" fill-opacity="0.65" stroke="#000" stroke-linecap="round" stroke-linejoin="round" stroke-width="0.5px" style="transform: translate(1230px, 250px) scale(9) rotate(0deg)" class="" d="M4 0v58"/><path fill="none" fill-opacity="0.65" stroke="#000" stroke-linecap="round" stroke-linejoin="round" stroke-width="0.5px" style="transform: translate(1500px, 250px) scale(9) rotate(0deg)" class="" d="M35.5 4H4v25.5m0 29v-29m0 0h29"/><path fill="none" fill-opacity="0.65" stroke="#000" stroke-linecap="round" stroke-linejoin="round" stroke-width="0.5px" style="transform: translate(1995px, 250px) scale(9) rotate(0deg)" class="" d="M4 0v58"/></g><g><path fill="none" fill-opacity="0.65" stroke="#000" stroke-linecap="round" stroke-linejoin="round" stroke-width="2.25px" style="transform: translate(420px, 1350px) scale(2) rotate(0deg)" class="" d="M4 55V4h18c1.7 0 3.3.3 4.8 1l2.7 1 2.4 1.3a13 13 0 0 1 5 4.7l.5 1c.4.6.7 1.4 1 2.2l1.6 4.3 1.2 5 .4 2 .3 4v2l-.3 4.4c0 .7-.2 1.5-.4 2.2l-.7 3a13 13 0 0 1-1.6 3.6l-.6 1a13 13 0 0 1-1.8 2.3l-1.2 1.2a13 13 0 0 1-2.9 2.2l-1.1.6a13 13 0 0 1-3.8 1.4l-1.7.3c-.9.2-1.7.3-2.6.3H4Z"/><path fill="none" fill-opacity="0.65" stroke="#000" stroke-linecap="round" stroke-linejoin="round" stroke-width="2.25px" style="transform: translate(550px, 1350px) scale(2) rotate(0deg)" class="" d="M26.3 4c-28 0-31.4 54 0 53.5 31.4-.6 28-53.5 0-53.5Z"/><path fill="none" fill-opacity="0.65" stroke="#000" stroke-linecap="round" stroke-linejoin="round" stroke-width="2.25px" style="transform: translate(700px, 1350px) scale(2) rotate(0deg)" class="" d="M0 0"/><path fill="none" fill-opacity="0.65" stroke="#000" stroke-linecap="round" stroke-linejoin="round" stroke-width="2.25px" style="transform: translate(830px, 1350px) scale(2) rotate(0deg)" class="" d="M4 58.7V4.3c30-3.2 34.1 19.2 17.5 27M4 33.9c7.2.7 13.1-.3 17.5-2.4m0 0 15 27.3"/><path fill="none" fill-opacity="0.65" stroke="#000" stroke-linecap="round" stroke-linejoin="round" stroke-width="2.25px" style="transform: translate(940px, 1350px) scale(2) rotate(0deg)" class="" d="M4 0v58"/><path fill="none" fill-opacity="0.65" stroke="#000" stroke-linecap="round" stroke-linejoin="round" stroke-width="2.25px" style="transform: translate(1000px, 1348px) scale(2) rotate(0deg)" class="" d="m46 19-2-4.6a13 13 0 0 0-1.4-2.6l-.8-1.2a13 13 0 0 0-5.9-4.5l-1.6-.6a13 13 0 0 0-2.7-.7l-3.1-.5a13 13 0 0 0-4 0l-3.4.5-2.1.5-1.4.5a13 13 0 0 0-6 4.1l-1.2 1.5A13 13 0 0 0 9 13.8l-2 3.7a13 13 0 0 0-.7 2l-1.3 4.1a13 13 0 0 0-.5 2.8L4 30.5v2l.3 4c0 1 .2 2 .5 2.9l1 3.4A13 13 0 0 0 7.5 46L9 48.5a13 13 0 0 0 2.3 2.7l2.2 2a13 13 0 0 0 3.3 2.1l1.6.8c1.4.6 2.9 1 4.3 1l2.8.3h2l3.6-.3a13 13 0 0 0 3.7-.8l1.2-.5a13 13 0 0 0 5.7-4.3l1.4-1.8a13 13 0 0 0 1.5-2.6L46 44a13 13 0 0 0 1.1-5.2V34H28.5"/><path fill="none" fill-opacity="0.65" stroke="#000" stroke-linecap="round" stroke-linejoin="round" stroke-width="2.25px" style="transform: translate(1140px, 1350px) scale(2) rotate(0deg)" class="" d="M4 0v29m0 29V29m0 0h38m0 0V0m0 29v29"/><path fill="none" fill-opacity="0.65" stroke="#000" stroke-linecap="round" stroke-linejoin="round" stroke-width="2.25px" style="transform: translate(1280px, 1350px) scale(2) rotate(0deg)" class="" d="M0 4h20.8m20.7 0H20.7m0 0v55"/><path fill="none" fill-opacity="0.65" stroke="#000" stroke-linecap="round" stroke-linejoin="round" stroke-width="2.25px" style="transform: translate(1410px, 1350px) scale(2) rotate(0deg)" class="" d="M0 0"/><path fill="none" fill-opacity="0.65" stroke="#000" stroke-linecap="round" stroke-linejoin="round" stroke-width="2.25px" style="transform: translate(1540px, 1350px) scale(2) rotate(0deg)" class="" d="M4 0v29m0 29V29m0 0h38m0 0V0m0 29v29"/><path fill="none" fill-opacity="0.65" stroke="#000" stroke-linecap="round" stroke-linejoin="round" stroke-width="2.25px" style="transform: translate(1680px, 1350px) scale(2) rotate(0deg)" class="" d="m4 57 6.3-18m35.2 18L39 39m0 0L26.5 4h-4L10.3 39M39 39H10.3"/><path fill="none" fill-opacity="0.65" stroke="#000" stroke-linecap="round" stroke-linejoin="round" stroke-width="2.25px" style="transform: translate(1810px, 1350px) scale(2) rotate(0deg)" class="" d="M4 0v52.5h28"/><path fill="none" fill-opacity="0.65" stroke="#000" stroke-linecap="round" stroke-linejoin="round" stroke-width="2.25px" style="transform: translate(1920px, 1350px) scale(2) rotate(0deg)" class="" d="M4 0v52.5h28"/></g><g><path fill="none" fill-opacity="0.65" stroke="#000" stroke-linecap="round" stroke-linejoin="round" stroke-width="2.25px" style="transform: translate(420px, 1750px) scale(2) rotate(0deg)" class="" d="M4 57.5V2l25 55.5L52.5 2v55.5"/><path fill="none" fill-opacity="0.65" stroke="#000" stroke-linecap="round" stroke-linejoin="round" stroke-width="2.25px" style="transform: translate(570px, 1750px) scale(2) rotate(0deg)" class="" d="M0 0"/><path fill="none" fill-opacity="0.65" stroke="#000" stroke-linecap="round" stroke-linejoin="round" stroke-width="2.25px" style="transform: translate(700px, 1750px) scale(2) rotate(0deg)" class="" d="m3 2 37 57m0-57L3 59"/><path fill="none" fill-opacity="0.65" stroke="#000" stroke-linecap="round" stroke-linejoin="round" stroke-width="2.25px" style="transform: translate(820px, 1750px) scale(2) rotate(0deg)" class="" d="M0 0"/><path fill="none" fill-opacity="0.65" stroke="#000" stroke-linecap="round" stroke-linejoin="round" stroke-width="2.25px" style="transform: translate(950px, 1750px) scale(2) rotate(0deg)" class="" d="M0 0"/><path fill="none" fill-opacity="0.65" stroke="#000" stroke-linecap="round" stroke-linejoin="round" stroke-width="2.25px" style="transform: translate(1080px, 1750px) scale(2) rotate(0deg)" class="" d="M0 0"/><path fill="none" fill-opacity="0.65" stroke="#000" stroke-linecap="round" stroke-linejoin="round" stroke-width="2.25px" style="transform: translate(1210px, 1750px) scale(2) rotate(0deg)" class="" d="m2 15 17-9v52.5"/><path fill="none" fill-opacity="0.65" stroke="#000" stroke-linecap="round" stroke-linejoin="round" stroke-width="2.25px" style="transform: translate(1310px, 1750px) scale(2) rotate(0deg)" class="" d="m2 15 17-9v52.5"/><path fill="none" fill-opacity="0.65" stroke="#000" stroke-linecap="round" stroke-linejoin="round" stroke-width="2.25px" style="transform: translate(1410px, 1750px) scale(2) rotate(0deg)" class="" d="m2 15 17-9v52.5"/><path fill="none" fill-opacity="0.65" stroke="#000" stroke-linecap="round" stroke-linejoin="round" stroke-width="2.25px" style="transform: translate(1510px, 1750px) scale(2) rotate(0deg)" class="" d="M4 15C6 1 31.5-.3 31.5 15 31.5 30.7 4 53 4 60c0-3 26 0 30.5 0"/><path fill="none" fill-opacity="0.65" stroke="#000" stroke-linecap="round" stroke-linejoin="round" stroke-width="2.25px" style="transform: translate(1624px, 1748px) scale(2) rotate(0deg)" class="" d="M37 17.6C31.5 4.1 4 4.1 4 17.6s16 14 16 14c14.8 4 17 5 17 17s-33 14.5-33 0M19.5 0v67"/></g></g></svg>